<svg width="3001" height="708" viewBox="0 0 3001 708" fill="none" xmlns="http://www.w3.org/2000/svg">
<path d="M408.425 609.898C335.251 609.897 268.271 583.417 216.508 539.539C257.59 561.013 304.311 573.173 353.879 573.172C369.009 573.172 383.87 572.027 398.39 569.841C332.587 567.123 267.582 540.659 217.341 490.418C167.1 440.177 140.637 375.172 137.918 309.369C135.733 323.889 134.587 338.75 134.587 353.88C134.586 403.447 146.747 450.169 168.22 491.251C124.341 439.488 97.861 372.508 97.861 299.334C97.861 135.313 230.826 2.34902 394.847 2.34802C381.405 0.798023 367.735 0 353.879 0C158.437 0 0 158.437 0 353.879C0 451.601 39.609 540.07 103.648 604.11C167.687 668.15 256.158 707.759 353.879 707.759C549.321 707.759 707.758 549.322 707.758 353.88C707.758 340.024 706.96 326.354 705.41 312.912C705.41 476.933 572.446 609.898 408.425 609.898Z" fill="#F3CD77"/>
<path d="M574.173 51.7734L580.603 109.548L638.378 115.978L580.603 122.407L574.173 180.182L567.744 122.407L509.969 115.978L567.744 109.548L574.173 51.7734Z" fill="#F3CD77"/>
<path d="M393.873 184.172L405.099 285.047L505.973 296.273L405.099 307.498L393.873 408.373L382.647 307.498L281.773 296.273L382.647 285.047L393.873 184.172Z" fill="#F3CD77"/>
<path d="M559.098 96.8063C559.284 95.1373 558.559 93.4874 557.19 92.5154C517.274 64.1654 468.488 47.4844 415.801 47.4844C341.913 47.4844 275.682 80.2644 230.855 132.073C275.243 85.8044 337.69 56.9944 406.871 56.9944C456.732 56.9944 503.096 71.9614 541.723 97.6414C545.639 100.245 550.331 101.42 555.004 100.9C557.157 100.66 558.858 98.9603 559.098 96.8063Z" fill="#F3CD77"/>
<path d="M593.338 131.046C591.184 131.286 589.484 132.986 589.244 135.14C589.003 137.309 589.698 139.468 591.129 141.117C628.27 183.914 650.762 239.768 650.762 300.884C650.762 370.064 621.952 432.512 575.684 476.899C627.493 432.071 660.272 365.841 660.272 291.954C660.272 232.207 638.828 177.475 603.229 135.01C600.803 132.117 597.089 130.629 593.338 131.046Z" fill="#F3CD77"/>
<path d="M834.2 202H988.1V235.3H834.2V202ZM981.5 121.9H1021.4V316H981.5V121.9ZM799.1 121.9H839V316H799.1V121.9ZM1234.86 316H1195.86V166.9H1234.86V316ZM1197.96 244.3L1198.26 254.5C1197.86 257.3 1196.86 261.4 1195.26 266.8C1193.66 272 1191.16 277.6 1187.76 283.6C1184.56 289.6 1180.36 295.4 1175.16 301C1169.96 306.4 1163.56 310.9 1155.96 314.5C1148.36 317.9 1139.36 319.6 1128.96 319.6C1120.76 319.6 1112.66 318.6 1104.66 316.6C1096.86 314.6 1089.76 311.3 1083.36 306.7C1076.96 301.9 1071.86 295.5 1068.06 287.5C1064.26 279.5 1062.36 269.4 1062.36 257.2V166.9H1101.36V250.6C1101.36 260.2 1102.86 267.8 1105.86 273.4C1109.06 278.8 1113.66 282.6 1119.66 284.8C1125.66 287 1132.76 288.1 1140.96 288.1C1151.76 288.1 1161.06 285.8 1168.86 281.2C1176.66 276.4 1182.96 270.6 1187.76 263.8C1192.76 257 1196.16 250.5 1197.96 244.3ZM1342.97 319.3C1328.17 319.3 1314.67 316.1 1302.47 309.7C1290.47 303.1 1280.87 294 1273.67 282.4C1266.67 270.6 1263.17 257 1263.17 241.6C1263.17 225.8 1266.77 212.1 1273.97 200.5C1281.17 188.9 1290.87 179.9 1303.07 173.5C1315.47 166.9 1329.47 163.6 1345.07 163.6C1362.27 163.6 1376.07 167.1 1386.47 174.1C1397.07 180.9 1404.77 190.2 1409.57 202C1414.37 213.8 1416.77 227 1416.77 241.6C1416.77 250.4 1415.37 259.4 1412.57 268.6C1409.77 277.6 1405.47 286 1399.67 293.8C1393.87 301.4 1386.27 307.6 1376.87 312.4C1367.47 317 1356.17 319.3 1342.97 319.3ZM1355.57 289.3C1367.37 289.3 1377.57 287.3 1386.17 283.3C1394.77 279.3 1401.37 273.7 1405.97 266.5C1410.57 259.3 1412.87 251 1412.87 241.6C1412.87 231.4 1410.47 222.8 1405.67 215.8C1401.07 208.6 1394.47 203.2 1385.87 199.6C1377.47 195.8 1367.37 193.9 1355.57 193.9C1338.97 193.9 1326.07 198.3 1316.87 207.1C1307.67 215.7 1303.07 227.2 1303.07 241.6C1303.07 251.2 1305.27 259.6 1309.67 266.8C1314.07 273.8 1320.17 279.3 1327.97 283.3C1335.97 287.3 1345.17 289.3 1355.57 289.3ZM1412.87 166.9H1451.87V316H1415.57C1415.57 316 1415.27 314.1 1414.67 310.3C1414.27 306.3 1413.87 301.3 1413.47 295.3C1413.07 289.3 1412.87 283.4 1412.87 277.6V166.9ZM1623.36 316V234.1C1623.36 225.9 1621.96 219.1 1619.16 213.7C1616.36 208.3 1611.86 204.2 1605.66 201.4C1599.66 198.6 1591.56 197.2 1581.36 197.2C1571.56 197.2 1562.66 199.1 1554.66 202.9C1546.66 206.5 1540.16 211.3 1535.16 217.3C1530.16 223.1 1527.36 229.3 1526.76 235.9L1526.46 219.4C1527.46 212.8 1529.76 206.2 1533.36 199.6C1536.96 193 1541.76 187 1547.76 181.6C1553.76 176.2 1560.96 171.9 1569.36 168.7C1577.96 165.3 1587.56 163.6 1598.16 163.6C1607.36 163.6 1615.86 164.8 1623.66 167.2C1631.46 169.4 1638.26 172.9 1644.06 177.7C1649.86 182.5 1654.36 188.5 1657.56 195.7C1660.76 202.7 1662.36 211 1662.36 220.6V316H1623.36ZM1489.86 316V106.9H1528.86V316H1489.86ZM1742.51 101.5V135.7H1697.21V101.5H1742.51ZM1700.21 166.9H1739.21V316H1700.21V166.9ZM1778.08 166.9H1817.08V316H1778.08V166.9ZM1886.38 163.6C1895.58 163.6 1904.08 164.8 1911.88 167.2C1919.68 169.6 1926.48 173.3 1932.28 178.3C1938.08 183.3 1942.58 189.7 1945.78 197.5C1948.98 205.1 1950.58 214.2 1950.58 224.8V316H1911.58V231.7C1911.58 219.1 1908.48 209.9 1902.28 204.1C1896.28 198.1 1886.38 195.1 1872.58 195.1C1862.18 195.1 1852.78 197.1 1844.38 201.1C1835.98 205.1 1829.18 210.2 1823.98 216.4C1818.78 222.4 1815.78 228.7 1814.98 235.3L1814.68 220C1815.68 213 1817.98 206.2 1821.58 199.6C1825.18 193 1829.98 187 1835.98 181.6C1842.18 176 1849.48 171.6 1857.88 168.4C1866.28 165.2 1875.78 163.6 1886.38 163.6ZM2214.45 296.2H2195.55L2307.15 121.9H2347.05V316H2307.15V175L2316.75 177.7L2227.65 316H2182.95L2093.85 178.3L2103.45 175.6V316H2063.55V121.9H2103.45L2214.45 296.2ZM2475.94 319.6C2457.14 319.6 2440.54 316.6 2426.14 310.6C2411.94 304.6 2400.84 295.9 2392.84 284.5C2384.84 272.9 2380.84 258.7 2380.84 241.9C2380.84 225.1 2384.84 210.9 2392.84 199.3C2400.84 187.5 2411.94 178.6 2426.14 172.6C2440.54 166.6 2457.14 163.6 2475.94 163.6C2494.74 163.6 2511.14 166.6 2525.14 172.6C2539.34 178.6 2550.44 187.5 2558.44 199.3C2566.44 210.9 2570.44 225.1 2570.44 241.9C2570.44 258.7 2566.44 272.9 2558.44 284.5C2550.44 295.9 2539.34 304.6 2525.14 310.6C2511.14 316.6 2494.74 319.6 2475.94 319.6ZM2475.94 289.6C2486.34 289.6 2495.64 287.8 2503.84 284.2C2512.24 280.4 2518.84 275 2523.64 268C2528.44 260.8 2530.84 252.1 2530.84 241.9C2530.84 231.7 2528.44 223 2523.64 215.8C2518.84 208.4 2512.34 202.8 2504.14 199C2495.94 195.2 2486.54 193.3 2475.94 193.3C2465.54 193.3 2456.14 195.2 2447.74 199C2439.34 202.8 2432.64 208.3 2427.64 215.5C2422.84 222.7 2420.44 231.5 2420.44 241.9C2420.44 252.1 2422.84 260.8 2427.64 268C2432.44 275 2439.04 280.4 2447.44 284.2C2455.84 287.8 2465.34 289.6 2475.94 289.6ZM2687.17 319.6C2668.37 319.6 2651.77 316.6 2637.37 310.6C2623.17 304.6 2612.07 295.9 2604.07 284.5C2596.07 272.9 2592.07 258.7 2592.07 241.9C2592.07 225.1 2596.07 210.9 2604.07 199.3C2612.07 187.5 2623.17 178.6 2637.37 172.6C2651.77 166.6 2668.37 163.6 2687.17 163.6C2705.97 163.6 2722.37 166.6 2736.37 172.6C2750.57 178.6 2761.67 187.5 2769.67 199.3C2777.67 210.9 2781.67 225.1 2781.67 241.9C2781.67 258.7 2777.67 272.9 2769.67 284.5C2761.67 295.9 2750.57 304.6 2736.37 310.6C2722.37 316.6 2705.97 319.6 2687.17 319.6ZM2687.17 289.6C2697.57 289.6 2706.87 287.8 2715.07 284.2C2723.47 280.4 2730.07 275 2734.87 268C2739.67 260.8 2742.07 252.1 2742.07 241.9C2742.07 231.7 2739.67 223 2734.87 215.8C2730.07 208.4 2723.57 202.8 2715.37 199C2707.17 195.2 2697.77 193.3 2687.17 193.3C2676.77 193.3 2667.37 195.2 2658.97 199C2650.57 202.8 2643.87 208.3 2638.87 215.5C2634.07 222.7 2631.67 231.5 2631.67 241.9C2631.67 252.1 2634.07 260.8 2638.87 268C2643.67 275 2650.27 280.4 2658.67 284.2C2667.07 287.8 2676.57 289.6 2687.17 289.6ZM2810.5 166.9H2849.5V316H2810.5V166.9ZM2918.8 163.6C2928 163.6 2936.5 164.8 2944.3 167.2C2952.1 169.6 2958.9 173.3 2964.7 178.3C2970.5 183.3 2975 189.7 2978.2 197.5C2981.4 205.1 2983 214.2 2983 224.8V316H2944V231.7C2944 219.1 2940.9 209.9 2934.7 204.1C2928.7 198.1 2918.8 195.1 2905 195.1C2894.6 195.1 2885.2 197.1 2876.8 201.1C2868.4 205.1 2861.6 210.2 2856.4 216.4C2851.2 222.4 2848.2 228.7 2847.4 235.3L2847.1 220C2848.1 213 2850.4 206.2 2854 199.6C2857.6 193 2862.4 187 2868.4 181.6C2874.6 176 2881.9 171.6 2890.3 168.4C2898.7 165.2 2908.2 163.6 2918.8 163.6Z" fill="#1A1A1A"/>
<path d="M781.84 397.076H980.984V429.488H781.84V397.076ZM862.14 425.4H900.976V586H862.14V425.4ZM1121.71 586V506.284C1121.71 498.303 1120.34 491.684 1117.62 486.428C1114.89 481.172 1110.51 477.181 1104.48 474.456C1098.64 471.731 1090.75 470.368 1080.83 470.368C1071.29 470.368 1062.62 472.217 1054.84 475.916C1047.05 479.42 1040.72 484.092 1035.86 489.932C1030.99 495.577 1028.27 501.612 1027.68 508.036L1027.39 491.976C1028.36 485.552 1030.6 479.128 1034.11 472.704C1037.61 466.28 1042.28 460.44 1048.12 455.184C1053.96 449.928 1060.97 445.743 1069.15 442.628C1077.52 439.319 1086.86 437.664 1097.18 437.664C1106.13 437.664 1114.41 438.832 1122 441.168C1129.59 443.309 1136.21 446.716 1141.85 451.388C1147.5 456.06 1151.88 461.9 1154.99 468.908C1158.11 475.721 1159.67 483.8 1159.67 493.144V586H1121.71ZM991.765 586V382.476H1029.73V586H991.765ZM1264.83 589.212C1250.42 589.212 1237.28 586.097 1225.41 579.868C1213.73 573.444 1204.38 564.587 1197.38 553.296C1190.56 541.811 1187.16 528.573 1187.16 513.584C1187.16 498.205 1190.66 484.871 1197.67 473.58C1204.68 462.289 1214.12 453.529 1225.99 447.3C1238.06 440.876 1251.69 437.664 1266.87 437.664C1283.61 437.664 1297.05 441.071 1307.17 447.884C1317.49 454.503 1324.98 463.555 1329.65 475.04C1334.32 486.525 1336.66 499.373 1336.66 513.584C1336.66 522.149 1335.3 530.909 1332.57 539.864C1329.85 548.624 1325.66 556.8 1320.02 564.392C1314.37 571.789 1306.97 577.824 1297.82 582.496C1288.68 586.973 1277.68 589.212 1264.83 589.212ZM1277.09 560.012C1288.58 560.012 1298.51 558.065 1306.88 554.172C1315.25 550.279 1321.67 544.828 1326.15 537.82C1330.63 530.812 1332.86 522.733 1332.86 513.584C1332.86 503.656 1330.53 495.285 1325.86 488.472C1321.38 481.464 1314.96 476.208 1306.58 472.704C1298.41 469.005 1288.58 467.156 1277.09 467.156C1260.94 467.156 1248.38 471.439 1239.42 480.004C1230.47 488.375 1225.99 499.568 1225.99 513.584C1225.99 522.928 1228.13 531.104 1232.42 538.112C1236.7 544.925 1242.64 550.279 1250.23 554.172C1258.02 558.065 1266.97 560.012 1277.09 560.012ZM1332.86 440.876H1370.82V586H1335.49C1335.49 586 1335.2 584.151 1334.62 580.452C1334.23 576.559 1333.84 571.692 1333.45 565.852C1333.06 560.012 1332.86 554.269 1332.86 548.624V440.876ZM1448.69 377.22V410.508H1404.6V377.22H1448.69ZM1407.52 440.876H1445.48V586H1407.52V440.876ZM1705.59 566.728H1687.19L1795.81 397.076H1834.65V586H1795.81V448.76L1805.16 451.388L1718.43 586H1674.93L1588.2 451.972L1597.55 449.344V586H1558.71V397.076H1597.55L1705.59 566.728ZM1945.21 589.212C1930.81 589.212 1917.67 586.097 1905.79 579.868C1894.11 573.444 1884.77 564.587 1877.76 553.296C1870.95 541.811 1867.54 528.573 1867.54 513.584C1867.54 498.205 1871.04 484.871 1878.05 473.58C1885.06 462.289 1894.5 453.529 1906.38 447.3C1918.44 440.876 1932.07 437.664 1947.26 437.664C1964 437.664 1977.43 441.071 1987.55 447.884C1997.87 454.503 2005.36 463.555 2010.04 475.04C2014.71 486.525 2017.04 499.373 2017.04 513.584C2017.04 522.149 2015.68 530.909 2012.96 539.864C2010.23 548.624 2006.04 556.8 2000.4 564.392C1994.75 571.789 1987.36 577.824 1978.21 582.496C1969.06 586.973 1958.06 589.212 1945.21 589.212ZM1957.48 560.012C1968.96 560.012 1978.89 558.065 1987.26 554.172C1995.63 550.279 2002.05 544.828 2006.53 537.82C2011.01 530.812 2013.25 522.733 2013.25 513.584C2013.25 503.656 2010.91 495.285 2006.24 488.472C2001.76 481.464 1995.34 476.208 1986.97 472.704C1978.79 469.005 1968.96 467.156 1957.48 467.156C1941.32 467.156 1928.76 471.439 1919.81 480.004C1910.85 488.375 1906.38 499.568 1906.38 513.584C1906.38 522.928 1908.52 531.104 1912.8 538.112C1917.08 544.925 1923.02 550.279 1930.61 554.172C1938.4 558.065 1947.35 560.012 1957.48 560.012ZM2013.25 440.876H2051.21V586H2015.88C2015.88 586 2015.58 584.151 2015 580.452C2014.61 576.559 2014.22 571.692 2013.83 565.852C2013.44 560.012 2013.25 554.269 2013.25 548.624V440.876ZM2079.72 537.82H2114.76C2116.9 544.439 2121.28 549.889 2127.9 554.172C2134.72 558.26 2143.57 560.304 2154.47 560.304C2161.87 560.304 2167.61 559.623 2171.7 558.26C2175.79 556.897 2178.61 554.951 2180.17 552.42C2181.73 549.695 2182.51 546.677 2182.51 543.368C2182.51 539.28 2181.24 536.165 2178.71 534.024C2176.18 531.688 2172.29 529.839 2167.03 528.476C2161.77 527.113 2155.06 525.848 2146.88 524.68C2138.71 523.317 2130.82 521.663 2123.23 519.716C2115.64 517.769 2108.92 515.239 2103.08 512.124C2097.24 508.815 2092.57 504.727 2089.07 499.86C2085.76 494.799 2084.1 488.667 2084.1 481.464C2084.1 474.456 2085.76 468.227 2089.07 462.776C2092.57 457.325 2097.34 452.751 2103.37 449.052C2109.6 445.353 2116.81 442.531 2124.98 440.584C2133.35 438.637 2142.31 437.664 2151.85 437.664C2166.25 437.664 2178.22 439.805 2187.76 444.088C2197.3 448.176 2204.41 454.016 2209.08 461.608C2213.95 469.005 2216.38 477.571 2216.38 487.304H2182.8C2181.24 480.101 2178.13 474.943 2173.45 471.828C2168.78 468.519 2161.58 466.864 2151.85 466.864C2142.31 466.864 2135.11 468.324 2130.24 471.244C2125.37 474.164 2122.94 478.155 2122.94 483.216C2122.94 487.304 2124.4 490.516 2127.32 492.852C2130.43 494.993 2134.91 496.745 2140.75 498.108C2146.79 499.471 2154.28 500.931 2163.23 502.488C2170.83 504.045 2178.03 505.797 2184.84 507.744C2191.85 509.691 2198.08 512.221 2203.53 515.336C2208.98 518.256 2213.26 522.247 2216.38 527.308C2219.69 532.175 2221.34 538.404 2221.34 545.996C2221.34 555.34 2218.62 563.224 2213.17 569.648C2207.91 576.072 2200.32 581.036 2190.39 584.54C2180.46 587.849 2168.59 589.504 2154.77 589.504C2142.5 589.504 2131.89 588.239 2122.94 585.708C2114.18 582.983 2106.88 579.576 2101.04 575.488C2095.2 571.205 2090.62 566.728 2087.31 562.056C2084.2 557.189 2082.06 552.615 2080.89 548.332C2079.72 544.049 2079.33 540.545 2079.72 537.82ZM2244.54 537.82H2279.58C2281.72 544.439 2286.1 549.889 2292.72 554.172C2299.54 558.26 2308.39 560.304 2319.3 560.304C2326.69 560.304 2332.44 559.623 2336.52 558.26C2340.61 556.897 2343.43 554.951 2344.99 552.42C2346.55 549.695 2347.33 546.677 2347.33 543.368C2347.33 539.28 2346.06 536.165 2343.53 534.024C2341 531.688 2337.11 529.839 2331.85 528.476C2326.6 527.113 2319.88 525.848 2311.7 524.68C2303.53 523.317 2295.64 521.663 2288.05 519.716C2280.46 517.769 2273.74 515.239 2267.9 512.124C2262.06 508.815 2257.39 504.727 2253.89 499.86C2250.58 494.799 2248.92 488.667 2248.92 481.464C2248.92 474.456 2250.58 468.227 2253.89 462.776C2257.39 457.325 2262.16 452.751 2268.2 449.052C2274.42 445.353 2281.63 442.531 2289.8 440.584C2298.17 438.637 2307.13 437.664 2316.67 437.664C2331.07 437.664 2343.04 439.805 2352.58 444.088C2362.12 448.176 2369.23 454.016 2373.9 461.608C2378.77 469.005 2381.2 477.571 2381.2 487.304H2347.62C2346.06 480.101 2342.95 474.943 2338.28 471.828C2333.6 468.519 2326.4 466.864 2316.67 466.864C2307.13 466.864 2299.93 468.324 2295.06 471.244C2290.19 474.164 2287.76 478.155 2287.76 483.216C2287.76 487.304 2289.22 490.516 2292.14 492.852C2295.25 494.993 2299.73 496.745 2305.57 498.108C2311.61 499.471 2319.1 500.931 2328.06 502.488C2335.65 504.045 2342.85 505.797 2349.66 507.744C2356.67 509.691 2362.9 512.221 2368.35 515.336C2373.8 518.256 2378.08 522.247 2381.2 527.308C2384.51 532.175 2386.16 538.404 2386.16 545.996C2386.16 555.34 2383.44 563.224 2377.99 569.648C2372.73 576.072 2365.14 581.036 2355.21 584.54C2345.28 587.849 2333.41 589.504 2319.59 589.504C2307.32 589.504 2296.71 588.239 2287.76 585.708C2279 582.983 2271.7 579.576 2265.86 575.488C2260.02 571.205 2255.44 566.728 2252.14 562.056C2249.02 557.189 2246.88 552.615 2245.71 548.332C2244.54 544.049 2244.15 540.545 2244.54 537.82ZM2485.87 589.212C2471.46 589.212 2458.32 586.097 2446.45 579.868C2434.77 573.444 2425.42 564.587 2418.42 553.296C2411.6 541.811 2408.2 528.573 2408.2 513.584C2408.2 498.205 2411.7 484.871 2418.71 473.58C2425.72 462.289 2435.16 453.529 2447.03 447.3C2459.1 440.876 2472.73 437.664 2487.91 437.664C2504.65 437.664 2518.08 441.071 2528.21 447.884C2538.52 454.503 2546.02 463.555 2550.69 475.04C2555.36 486.525 2557.7 499.373 2557.7 513.584C2557.7 522.149 2556.34 530.909 2553.61 539.864C2550.89 548.624 2546.7 556.8 2541.06 564.392C2535.41 571.789 2528.01 577.824 2518.86 582.496C2509.71 586.973 2498.72 589.212 2485.87 589.212ZM2498.13 560.012C2509.62 560.012 2519.54 558.065 2527.92 554.172C2536.29 550.279 2542.71 544.828 2547.19 537.82C2551.66 530.812 2553.9 522.733 2553.9 513.584C2553.9 503.656 2551.57 495.285 2546.9 488.472C2542.42 481.464 2535.99 476.208 2527.62 472.704C2519.45 469.005 2509.62 467.156 2498.13 467.156C2481.97 467.156 2469.42 471.439 2460.46 480.004C2451.51 488.375 2447.03 499.568 2447.03 513.584C2447.03 522.928 2449.17 531.104 2453.46 538.112C2457.74 544.925 2463.68 550.279 2471.27 554.172C2479.05 558.065 2488.01 560.012 2498.13 560.012ZM2553.9 440.876H2591.86V586H2556.53C2556.53 586 2556.24 584.151 2555.66 580.452C2555.27 576.559 2554.88 571.692 2554.49 565.852C2554.1 560.012 2553.9 554.269 2553.9 548.624V440.876ZM2698.64 563.808C2682.87 563.808 2668.95 561.472 2656.88 556.8C2645 551.933 2635.76 544.828 2629.14 535.484C2622.52 526.14 2619.21 514.849 2619.21 501.612C2619.21 488.569 2622.42 477.279 2628.85 467.74C2635.27 458.201 2644.42 450.804 2656.3 445.548C2668.36 440.292 2682.48 437.664 2698.64 437.664C2703.11 437.664 2707.4 437.956 2711.48 438.54C2715.77 439.124 2719.95 439.903 2724.04 440.876L2797.33 441.168V469.784C2787.4 469.979 2777.28 468.811 2766.96 466.28C2756.84 463.555 2747.89 460.635 2740.1 457.52L2739.22 455.476C2745.84 458.591 2752.07 462.484 2757.91 467.156C2763.75 471.633 2768.42 476.889 2771.93 482.924C2775.63 488.764 2777.48 495.577 2777.48 503.364C2777.48 516.017 2774.26 526.919 2767.84 536.068C2761.42 545.023 2752.27 551.933 2740.39 556.8C2728.71 561.472 2714.79 563.808 2698.64 563.808ZM2747.4 645.86V638.852C2747.4 629.897 2744.48 623.668 2738.64 620.164C2732.99 616.66 2725.21 614.908 2715.28 614.908H2670.02C2661.26 614.908 2653.86 614.227 2647.83 612.864C2641.99 611.501 2637.32 609.555 2633.81 607.024C2630.31 604.493 2627.78 601.476 2626.22 597.972C2624.66 594.663 2623.88 591.061 2623.88 587.168C2623.88 579.381 2626.41 573.541 2631.48 569.648C2636.54 565.56 2643.35 562.835 2651.92 561.472C2660.48 560.109 2669.92 559.817 2680.24 560.596L2698.64 563.808C2686.37 564.197 2677.22 565.268 2671.19 567.02C2665.35 568.577 2662.43 571.789 2662.43 576.656C2662.43 579.576 2663.6 581.912 2665.93 583.664C2668.27 585.221 2671.58 586 2675.86 586H2723.46C2736.5 586 2747.59 587.363 2756.74 590.088C2766.09 593.008 2773.19 597.777 2778.06 604.396C2782.93 611.209 2785.36 620.456 2785.36 632.136V645.86H2747.4ZM2698.64 536.36C2707.01 536.36 2714.31 534.997 2720.54 532.272C2726.96 529.547 2731.92 525.653 2735.43 520.592C2738.93 515.336 2740.68 509.107 2740.68 501.904C2740.68 494.507 2738.93 488.18 2735.43 482.924C2731.92 477.668 2727.06 473.677 2720.83 470.952C2714.6 468.032 2707.2 466.572 2698.64 466.572C2690.26 466.572 2682.87 468.032 2676.44 470.952C2670.02 473.677 2665.06 477.668 2661.55 482.924C2658.05 488.18 2656.3 494.507 2656.3 501.904C2656.3 509.107 2658.05 515.336 2661.55 520.592C2665.06 525.653 2669.92 529.547 2676.15 532.272C2682.58 534.997 2690.07 536.36 2698.64 536.36ZM2951.83 537.82H2988.62C2987.07 547.748 2982.88 556.605 2976.07 564.392C2969.45 572.179 2960.4 578.311 2948.91 582.788C2937.43 587.265 2923.41 589.504 2906.86 589.504C2888.37 589.504 2872.02 586.584 2857.81 580.744C2843.6 574.709 2832.5 566.047 2824.52 554.756C2816.54 543.465 2812.55 529.839 2812.55 513.876C2812.55 497.913 2816.44 484.287 2824.23 472.996C2832.01 461.511 2842.82 452.751 2856.64 446.716C2870.66 440.681 2887.01 437.664 2905.7 437.664C2924.77 437.664 2940.64 440.681 2953.29 446.716C2965.94 452.751 2975.29 461.9 2981.32 474.164C2987.55 486.233 2990.18 501.709 2989.21 520.592H2850.8C2851.77 527.989 2854.5 534.705 2858.98 540.74C2863.65 546.775 2869.88 551.544 2877.66 555.048C2885.64 558.552 2895.09 560.304 2905.99 560.304C2918.06 560.304 2928.08 558.26 2936.06 554.172C2944.24 549.889 2949.5 544.439 2951.83 537.82ZM2903.94 466.572C2889.93 466.572 2878.54 469.687 2869.78 475.916C2861.02 481.951 2855.37 489.445 2852.84 498.4H2951.54C2950.57 488.667 2945.89 480.977 2937.52 475.332C2929.35 469.492 2918.15 466.572 2903.94 466.572Z" fill="#1A1A1A"/>
</svg>
