<?xml version="1.0" encoding="UTF-8" standalone="no"?>
<!DOCTYPE svg PUBLIC "-//W3C//DTD SVG 1.1//EN" "http://www.w3.org/Graphics/SVG/1.1/DTD/svg11.dtd">
<svg xmlns="http://www.w3.org/2000/svg" version="1.1" viewBox="0.00 0.00 336.00 87.00">
<path fill="#92278f" d="
  M 35.10 51.67
  C 31.63 50.44 31.44 46.99 32.35 43.77
  C 33.85 38.47 35.48 34.70 35.15 31.46
  A 0.58 0.57 -7.1 0 0 34.49 30.95
  Q 32.14 31.30 28.76 32.46
  Q 27.31 32.96 23.89 32.31
  A 1.30 1.28 33.2 0 0 22.90 32.51
  C 17.66 36.04 19.61 44.61 16.27 49.55
  A 0.36 0.36 0.0 0 1 15.63 49.47
  C 12.27 39.37 14.77 30.03 18.86 20.36
  Q 24.91 6.04 25.08 3.54
  A 1.25 1.25 0.0 0 1 27.28 2.83
  L 28.36 4.12
  A 5.97 5.96 31.0 0 1 29.63 9.17
  Q 28.90 12.65 25.73 19.42
  C 24.94 21.11 24.02 24.28 23.99 25.53
  Q 23.91 28.31 26.81 27.98
  Q 32.41 27.34 33.07 27.50
  A 1.32 1.31 33.0 0 0 34.16 27.27
  C 41.61 21.66 39.41 10.86 44.80 0.84
  A 1.17 1.14 -75.5 0 1 45.81 0.23
  L 48.82 0.23
  A 0.75 0.75 0.0 0 1 49.57 1.03
  Q 48.79 11.56 45.26 21.77
  C 42.29 30.34 37.72 41.33 35.83 51.25
  A 0.56 0.56 0.0 0 1 35.10 51.67
  Z"
/>
<path fill="#92278f" d="
  M 126.10 0.92
  C 124.03 11.32 116.91 23.15 114.54 35.01
  A 1.32 1.32 0.0 0 0 116.91 36.04
  C 119.42 32.57 122.38 28.13 127.58 29.50
  A 1.20 1.20 0.0 0 1 128.33 30.11
  Q 133.20 39.70 132.07 51.23
  A 0.59 0.59 0.0 0 1 131.19 51.69
  C 126.66 49.14 126.45 41.97 125.96 36.79
  A 0.75 0.75 0.0 0 0 125.08 36.12
  C 121.61 36.76 119.16 39.60 116.55 42.34
  C 114.10 44.93 111.43 46.32 108.40 44.11
  A 0.90 0.90 0.0 0 1 108.05 43.24
  Q 111.52 21.12 121.46 0.90
  A 1.34 1.33 -74.7 0 1 122.76 0.15
  L 125.66 0.34
  A 0.48 0.48 0.0 0 1 126.10 0.92
  Z"
/>
<path fill="#92278f" d="
  M 209.40 18.05
  Q 206.21 23.65 205.20 26.73
  Q 202.22 35.79 199.08 49.16
  A 0.48 0.48 0.0 0 1 198.14 49.17
  C 195.88 40.40 197.31 31.17 200.26 22.73
  Q 201.20 20.04 208.19 0.72
  A 0.87 0.87 0.0 0 1 209.06 0.15
  L 212.19 0.36
  A 0.84 0.83 83.3 0 1 212.93 0.95
  C 214.96 7.40 215.51 14.23 216.26 18.99
  Q 216.81 22.56 218.16 25.41
  A 0.52 0.52 0.0 0 0 218.72 25.70
  C 232.25 23.53 229.51 7.48 241.11 2.29
  A 0.68 0.68 0.0 0 1 242.06 2.81
  C 243.14 9.79 239.83 14.88 237.44 20.45
  Q 236.76 22.01 236.18 25.62
  A 4.08 3.91 -29.8 0 1 235.90 26.57
  C 233.81 31.19 233.48 36.68 232.36 41.06
  Q 231.09 46.03 226.58 47.82
  A 0.88 0.88 0.0 0 1 225.40 46.79
  L 229.86 29.31
  A 1.64 1.64 0.0 0 0 227.55 27.43
  C 223.28 29.51 219.55 31.61 214.74 30.42
  A 1.15 1.13 82.2 0 1 214.03 29.87
  Q 211.16 24.60 210.66 23.57
  Q 210.32 22.87 209.74 18.12
  A 0.18 0.18 0.0 0 0 209.40 18.05
  Z"
/>
<path fill="#92278f" d="
  M 149.20 7.11
  A 0.92 0.92 0.0 0 1 150.58 6.26
  L 151.82 6.97
  A 3.18 3.18 0.0 0 1 153.39 9.39
  Q 153.67 12.19 152.07 13.98
  A 1.45 1.45 0.0 0 1 149.54 13.09
  L 149.20 7.11
  Z"
/>
<path fill="#92278f" d="
  M 249.17 45.38
  Q 245.99 39.43 248.96 32.42
  C 251.41 26.62 257.01 21.04 263.25 21.04
  Q 268.51 21.04 271.20 27.08
  A 2.21 2.20 40.3 0 1 271.32 28.52
  C 268.54 39.30 261.34 45.81 249.96 45.86
  A 0.89 0.89 0.0 0 1 249.17 45.38
  Z
  M 252.38 39.50
  C 260.31 39.87 264.24 35.66 266.80 28.67
  A 0.77 0.77 0.0 0 0 266.43 27.73
  C 258.49 23.56 252.44 31.69 251.83 38.87
  A 0.58 0.58 0.0 0 0 252.38 39.50
  Z"
/>
<path fill="#92278f" d="
  M 277.47 45.86
  A 0.89 0.89 0.0 0 1 276.68 45.39
  Q 273.49 39.44 276.45 32.43
  C 278.90 26.63 284.49 21.04 290.73 21.04
  Q 295.99 21.03 298.68 27.07
  A 2.21 2.20 40.3 0 1 298.80 28.51
  C 296.04 39.29 288.84 45.80 277.47 45.86
  Z
  M 279.87 39.49
  C 287.79 39.87 291.73 35.66 294.29 28.68
  A 0.77 0.77 0.0 0 0 293.92 27.74
  C 285.99 23.56 279.93 31.68 279.32 38.86
  A 0.58 0.58 0.0 0 0 279.87 39.49
  Z"
/>
<path fill="#92278f" d="
  M 147.58 24.71
  C 143.11 32.32 140.04 40.59 139.93 49.35
  A 0.43 0.42 -72.7 0 1 139.27 49.70
  C 132.80 45.34 137.41 35.04 139.82 28.35
  Q 140.99 25.13 141.14 23.05
  A 1.62 1.62 0.0 0 1 143.57 21.76
  L 147.38 23.96
  A 0.55 0.54 -60.2 0 1 147.58 24.71
  Z"
/>
<path fill="#92278f" d="
  M 309.71 31.71
  Q 312.05 31.86 313.41 31.13
  Q 318.24 28.53 322.28 29.65
  A 1.23 1.19 81.8 0 1 322.99 30.20
  Q 324.39 32.53 324.46 34.77
  Q 324.57 38.79 324.46 45.40
  A 0.46 0.45 -70.1 0 1 323.72 45.75
  Q 319.53 42.42 320.09 36.67
  A 0.60 0.60 0.0 0 0 319.44 36.01
  C 312.57 36.53 308.38 39.89 305.12 45.49
  A 0.59 0.58 -51.1 0 1 304.19 45.59
  C 298.96 39.94 307.59 30.14 306.29 24.41
  A 0.58 0.58 0.0 0 1 306.73 23.71
  Q 308.61 23.29 309.67 23.79
  A 2.60 2.26 -76.1 0 1 310.96 26.31
  Q 310.68 29.03 309.40 31.11
  A 0.40 0.39 -72.5 0 0 309.71 31.71
  Z"
/>
<path fill="#92278f" d="
  M 58.38 25.89
  A 0.96 0.96 0.0 0 1 59.66 26.93
  Q 59.20 30.09 57.32 36.07
  Q 56.85 37.57 57.34 40.83
  A 0.54 0.54 0.0 0 0 58.00 41.28
  C 62.01 40.31 63.87 36.01 64.66 32.30
  A 1.36 1.36 0.0 0 1 65.34 31.39
  Q 69.90 28.95 72.48 24.21
  A 0.79 0.77 21.5 0 1 73.37 23.83
  C 77.24 24.86 77.58 28.50 77.56 32.08
  Q 77.54 34.85 77.30 36.96
  Q 76.47 44.12 76.87 49.24
  A 0.50 0.49 3.9 0 1 76.27 49.76
  C 71.51 48.76 72.24 41.53 72.84 37.52
  Q 72.99 36.51 72.72 36.18
  A 2.30 2.04 -42.1 0 0 69.54 36.21
  C 66.89 38.77 64.22 43.74 60.39 45.35
  Q 56.43 47.02 54.20 45.12
  Q 52.11 43.35 51.63 39.28
  C 51.04 34.25 53.16 27.82 58.38 25.89
  Z"
/>
<path fill="#92278f" d="
  M 100.78 33.47
  A 0.56 0.56 0.0 0 1 99.95 33.95
  C 94.15 30.80 89.48 34.33 87.14 39.61
  Q 86.97 39.97 87.26 40.35
  A 0.82 0.71 50.6 0 0 88.37 40.54
  C 91.02 38.10 94.40 35.67 98.27 37.37
  A 0.59 0.58 -70.9 0 1 98.60 38.06
  C 96.84 44.71 108.09 41.88 106.60 49.28
  A 0.63 0.62 9.2 0 1 105.90 49.78
  Q 97.89 48.67 94.85 42.83
  A 1.16 1.16 0.0 0 0 93.03 42.51
  Q 90.64 44.73 89.53 46.15
  C 87.16 49.21 84.80 50.46 81.22 49.96
  A 0.78 0.78 0.0 0 1 80.56 49.25
  C 79.60 37.70 85.76 30.82 94.12 24.10
  A 1.74 1.73 -67.7 0 1 94.98 23.74
  C 101.23 23.02 100.89 29.19 100.78 33.47
  Z"
/>
<path fill="#92278f" d="
  M 162.19 31.53
  Q 163.90 31.39 168.09 29.56
  Q 169.19 29.07 172.52 29.53
  A 1.09 1.07 -8.8 0 1 173.34 30.12
  Q 176.43 36.47 177.11 40.46
  Q 177.28 41.43 177.25 45.39
  A 0.61 0.60 87.4 0 1 176.70 46.00
  C 171.88 46.40 172.18 41.50 171.55 38.25
  C 170.93 35.04 166.47 35.90 164.22 36.99
  C 160.31 38.89 159.18 44.06 153.88 45.74
  A 0.49 0.49 0.0 0 1 153.25 45.29
  C 152.98 37.61 156.22 31.08 159.07 24.11
  A 0.62 0.62 0.0 0 1 160.10 23.92
  C 161.88 25.82 161.56 28.64 161.50 30.88
  A 0.64 0.63 -1.6 0 0 162.19 31.53
  Z"
/>
<path fill="#92278f" d="
  M 83.51 53.88
  A 0.81 0.81 0.0 0 1 84.02 54.69
  L 83.97 55.32
  A 0.58 0.58 0.0 0 1 83.18 55.83
  C 80.70 54.91 76.75 54.64 76.71 58.21
  C 76.67 62.31 84.56 61.46 84.91 66.77
  C 85.32 72.93 79.03 74.11 74.52 72.09
  A 0.74 0.73 14.1 0 1 74.09 71.38
  L 74.15 70.54
  A 0.49 0.49 0.0 0 1 74.82 70.11
  C 76.87 70.92 79.16 71.54 80.97 70.52
  C 83.61 69.04 82.69 65.61 80.24 64.45
  Q 76.65 62.75 75.86 62.04
  A 3.90 3.81 -86.3 0 1 75.20 61.27
  C 73.10 58.02 74.73 54.33 78.46 53.46
  Q 80.97 52.87 83.51 53.88
  Z"
/>
<path fill="#92278f" d="
  M 137.46 72.74
  Q 134.92 73.25 134.05 71.39
  A 0.62 0.62 0.0 0 0 133.10 71.17
  Q 128.82 74.54 124.46 71.82
  A 2.67 2.54 87.8 0 1 123.69 71.07
  Q 121.04 67.10 124.24 63.39
  A 1.34 1.31 5.1 0 1 124.62 63.08
  Q 125.29 62.73 125.66 62.29
  A 0.75 0.74 48.1 0 0 125.70 61.41
  Q 123.43 57.94 125.55 55.04
  C 129.48 49.66 137.95 56.87 129.82 62.17
  A 0.61 0.60 -36.3 0 0 129.68 63.06
  L 133.37 67.46
  A 0.36 0.36 0.0 0 0 133.99 67.35
  L 135.67 62.30
  A 0.17 0.16 11.2 0 1 135.84 62.19
  L 137.24 62.28
  A 0.23 0.23 0.0 0 1 137.45 62.54
  Q 137.05 66.27 135.27 68.86
  A 0.67 0.66 42.6 0 0 135.31 69.66
  L 137.59 72.38
  A 0.22 0.22 0.0 0 1 137.46 72.74
  Z
  M 128.19 61.01
  Q 128.22 61.01 128.30 60.98
  Q 130.03 60.34 130.96 58.85
  C 131.81 57.46 131.19 55.41 129.57 55.02
  C 127.97 54.64 126.47 56.17 126.60 57.80
  Q 126.75 59.55 127.99 60.91
  Q 128.05 60.97 128.19 61.01
  Z
  M 132.07 69.04
  L 127.36 63.59
  A 0.42 0.42 0.0 0 0 126.76 63.55
  L 126.53 63.75
  A 4.57 3.80 -40.9 0 0 125.56 69.62
  L 125.85 69.95
  A 4.57 3.80 -40.9 0 0 131.79 69.83
  L 132.03 69.63
  A 0.42 0.42 0.0 0 0 132.07 69.04
  Z"
/>
<path fill="#92278f" d="
  M 155.53 68.36
  A 0.18 0.18 0.0 0 0 155.87 68.37
  L 160.67 53.95
  A 0.75 0.74 11.0 0 1 161.43 53.44
  L 163.47 53.58
  A 0.47 0.46 0.7 0 1 163.91 54.02
  L 164.95 72.16
  A 0.67 0.67 0.0 0 1 164.24 72.86
  L 163.51 72.81
  A 0.89 0.89 0.0 0 1 162.68 71.98
  L 161.85 57.37
  A 0.80 0.78 -66.0 0 0 161.71 56.99
  Q 160.79 55.76 161.10 58.20
  Q 161.15 58.57 160.90 59.33
  Q 159.24 64.52 156.60 71.94
  A 1.15 1.14 -43.9 0 1 154.43 71.90
  L 149.67 56.85
  A 0.08 0.08 0.0 0 0 149.51 56.88
  L 148.83 72.20
  A 0.62 0.62 0.0 0 1 148.17 72.79
  L 146.93 72.71
  A 0.45 0.44 -86.1 0 1 146.52 72.23
  L 147.76 53.97
  A 0.58 0.58 0.0 0 1 148.38 53.43
  L 150.47 53.57
  A 0.58 0.58 0.0 0 1 150.98 53.97
  L 155.53 68.36
  Z"
/>
<path fill="#92278f" d="
  M 91.25 60.71
  C 94.33 57.42 98.81 58.45 100.37 62.51
  C 101.76 66.11 100.74 71.53 96.46 72.81
  Q 93.75 73.62 91.58 71.55
  A 0.35 0.35 0.0 0 0 90.99 71.80
  L 90.99 77.97
  A 0.56 0.56 0.0 0 1 90.43 78.53
  L 89.04 78.53
  A 0.54 0.54 0.0 0 1 88.50 77.99
  L 88.50 59.53
  A 0.52 0.52 0.0 0 1 89.02 59.01
  L 90.23 59.01
  A 0.52 0.52 0.0 0 1 90.75 59.53
  L 90.75 60.51
  A 0.29 0.29 0.0 0 0 91.25 60.71
  Z
  M 94.8002 60.6212
  A 5.26 3.89 -88.8 0 0 90.8009 65.7985
  A 5.26 3.89 -88.8 0 0 94.5798 71.1388
  A 5.26 3.89 -88.8 0 0 98.5791 65.9615
  A 5.26 3.89 -88.8 0 0 94.8002 60.6212
  Z"
/>
<path fill="#92278f" d="
  M 110.08 64.08
  A 0.91 0.91 0.0 0 0 110.97 62.90
  L 110.79 62.33
  A 2.20 2.19 -3.7 0 0 109.07 60.83
  Q 107.21 60.50 105.38 61.31
  A 0.68 0.68 0.0 0 1 104.44 60.87
  L 104.42 60.80
  A 1.02 1.02 0.0 0 1 104.95 59.63
  C 108.98 57.65 113.31 58.94 113.46 64.03
  Q 113.51 65.75 113.55 72.26
  A 0.58 0.58 0.0 0 1 112.93 72.84
  L 111.85 72.77
  A 0.56 0.55 -86.8 0 1 111.34 72.19
  Q 111.35 71.89 111.35 71.87
  A 0.49 0.49 0.0 0 0 110.53 71.58
  C 107.94 73.94 103.80 73.27 103.34 69.61
  C 102.86 65.81 106.90 63.98 110.08 64.08
  Z
  M 110.87 65.84
  Q 110.76 65.73 110.67 65.71
  Q 108.76 65.32 107.09 66.14
  C 105.55 66.90 104.96 69.09 106.18 70.34
  C 107.41 71.60 109.62 71.05 110.41 69.52
  Q 111.26 67.87 110.90 65.95
  Q 110.89 65.86 110.87 65.84
  Z"
/>
<path fill="#92278f" d="
  M 174.82 64.07
  A 0.91 0.91 0.0 0 0 175.71 62.90
  L 175.53 62.33
  A 2.20 2.18 -3.7 0 0 173.82 60.83
  Q 171.96 60.50 170.13 61.30
  A 0.68 0.68 0.0 0 1 169.19 60.86
  L 169.17 60.80
  A 1.02 1.02 0.0 0 1 169.70 59.63
  C 173.73 57.65 178.05 58.94 178.20 64.02
  Q 178.24 65.74 178.28 72.24
  A 0.58 0.58 0.0 0 1 177.66 72.82
  L 176.58 72.75
  A 0.56 0.55 -86.8 0 1 176.07 72.17
  Q 176.08 71.87 176.08 71.85
  A 0.49 0.49 0.0 0 0 175.27 71.56
  C 172.68 73.91 168.55 73.24 168.09 69.59
  C 167.61 65.79 171.65 63.97 174.82 64.07
  Z
  M 175.66 65.87
  Q 175.55 65.76 175.46 65.74
  Q 173.55 65.36 171.89 66.19
  C 170.35 66.96 169.78 69.15 171.00 70.39
  C 172.25 71.64 174.44 71.08 175.23 69.55
  Q 176.07 67.90 175.70 65.98
  Q 175.68 65.89 175.66 65.87
  Z"
/>
<path fill="#92278f" d="
  M 189.42 59.39
  A 0.34 0.33 18.1 0 1 189.62 59.78
  L 189.28 61.08
  A 0.26 0.25 -72.6 0 1 188.95 61.26
  Q 185.02 59.87 184.33 62.00
  A 1.79 1.70 24.1 0 0 185.17 64.04
  C 186.11 64.57 188.59 65.37 189.46 66.62
  Q 190.76 68.49 189.97 70.27
  C 188.63 73.32 184.92 73.47 182.10 72.29
  A 0.50 0.50 0.0 0 1 181.81 71.70
  L 182.09 70.58
  A 0.48 0.47 -65.8 0 1 182.81 70.30
  Q 184.85 71.64 186.81 70.70
  A 2.05 1.91 40.7 0 0 186.41 67.08
  Q 184.37 66.34 182.69 64.81
  A 1.60 1.59 -74.4 0 1 182.19 63.92
  C 181.26 59.13 185.71 57.96 189.42 59.39
  Z"
/>
<path fill="#92278f" d="
  M 200.42 59.39
  A 0.34 0.33 18.1 0 1 200.62 59.78
  L 200.28 61.08
  A 0.26 0.25 -72.6 0 1 199.95 61.26
  Q 196.02 59.87 195.33 62.00
  A 1.79 1.70 24.1 0 0 196.17 64.04
  C 197.11 64.57 199.59 65.37 200.46 66.62
  Q 201.76 68.49 200.97 70.26
  C 199.63 73.31 195.92 73.46 193.10 72.28
  A 0.50 0.50 0.0 0 1 192.81 71.69
  L 193.09 70.57
  A 0.48 0.47 -65.8 0 1 193.81 70.29
  Q 195.85 71.63 197.81 70.69
  A 2.05 1.91 40.7 0 0 197.41 67.08
  Q 195.37 66.34 193.69 64.81
  A 1.60 1.59 -74.4 0 1 193.19 63.92
  C 192.26 59.13 196.71 57.96 200.42 59.39
  Z"
/>
<path fill="#92278f" d="
  M 210.31 64.07
  A 0.91 0.91 0.0 0 0 211.19 62.89
  L 211.01 62.32
  A 2.20 2.19 -4.0 0 0 209.28 60.82
  Q 207.42 60.51 205.59 61.33
  A 0.68 0.68 0.0 0 1 204.65 60.89
  L 204.63 60.82
  A 1.02 1.02 0.0 0 1 205.16 59.65
  C 209.18 57.64 213.51 58.91 213.69 64.00
  Q 213.75 65.72 213.83 72.23
  A 0.58 0.58 0.0 0 1 213.21 72.82
  L 212.13 72.75
  A 0.56 0.55 -87.1 0 1 211.62 72.18
  Q 211.62 71.88 211.62 71.86
  A 0.49 0.49 0.0 0 0 210.80 71.57
  C 208.22 73.94 204.08 73.30 203.60 69.64
  C 203.10 65.84 207.13 63.99 210.31 64.07
  Z
  M 211.19 65.88
  Q 211.08 65.77 210.99 65.76
  Q 209.07 65.37 207.41 66.20
  C 205.87 66.97 205.30 69.16 206.52 70.39
  C 207.76 71.65 209.96 71.09 210.74 69.56
  Q 211.59 67.91 211.22 65.99
  Q 211.20 65.90 211.19 65.88
  Z"
/>
<path fill="#92278f" d="
  M 226.19 71.13
  C 221.80 75.04 217.20 71.15 217.06 66.26
  C 216.97 62.61 219.07 58.73 223.06 58.73
  Q 225.42 58.73 226.34 60.48
  A 0.26 0.26 0.0 0 0 226.83 60.41
  Q 227.15 58.89 228.65 58.98
  A 0.64 0.62 1.0 0 1 229.24 59.58
  Q 229.38 63.29 229.18 71.50
  Q 228.95 80.66 219.07 78.20
  A 1.03 1.02 18.4 0 1 218.37 76.81
  L 218.47 76.55
  A 0.83 0.83 0.0 0 1 219.57 76.11
  C 223.70 77.87 227.05 76.38 226.78 71.38
  A 0.36 0.35 67.7 0 0 226.19 71.13
  Z
  M 223.2724 60.6404
  A 5.11 3.76 -89.3 0 0 219.4503 65.7041
  A 5.11 3.76 -89.3 0 0 223.1476 70.8596
  A 5.11 3.76 -89.3 0 0 226.9697 65.7959
  A 5.11 3.76 -89.3 0 0 223.2724 60.6404
  Z"
/>
<path fill="#92278f" d="
  M 242.44 70.48
  A 0.41 0.41 0.0 0 1 242.97 70.74
  L 243.32 71.84
  A 0.31 0.30 -18.7 0 1 243.13 72.22
  C 230.13 77.06 229.58 58.93 238.56 58.79
  C 242.48 58.74 244.27 62.01 244.26 65.63
  A 0.63 0.62 -90.0 0 1 243.64 66.26
  L 235.36 66.26
  A 0.57 0.56 -1.9 0 0 234.79 66.86
  C 235.02 71.04 239.12 71.76 242.44 70.48
  Z
  M 235.25 64.53
  L 241.51 64.43
  A 0.28 0.28 0.0 0 0 241.79 64.15
  L 241.78 63.88
  A 3.39 3.38 89.1 0 0 238.35 60.54
  L 238.29 60.54
  A 3.39 3.38 89.1 0 0 234.96 63.98
  L 234.97 64.25
  A 0.28 0.28 0.0 0 0 235.25 64.53
  Z"
/>
</svg>
