<svg width="336" height="87" viewBox="0 0 336 87" fill="none" xmlns="http://www.w3.org/2000/svg">
<path d="M35.0982 51.6705C31.6282 50.4405 31.4382 46.9905 32.3482 43.7705C33.8482 38.4705 35.4782 34.7005 35.1482 31.4605C35.1411 31.3834 35.1181 31.3087 35.0806 31.2408C35.0431 31.1729 34.992 31.1133 34.9302 31.0656C34.8685 31.0179 34.7974 30.9831 34.7214 30.9633C34.6454 30.9435 34.5661 30.9391 34.4882 30.9505C32.9215 31.1838 31.0115 31.6871 28.7582 32.4605C27.7915 32.7938 26.1682 32.7438 23.8882 32.3105C23.7172 32.2757 23.5414 32.2755 23.3712 32.3099C23.2011 32.3442 23.0402 32.4125 22.8982 32.5105C17.6582 36.0405 19.6082 44.6105 16.2682 49.5505C16.2312 49.6064 16.1793 49.6508 16.1184 49.6788C16.0574 49.7068 15.9899 49.7172 15.9234 49.7089C15.8569 49.7006 15.794 49.6739 15.7418 49.6317C15.6897 49.5896 15.6503 49.5338 15.6282 49.4705C12.2682 39.3705 14.7682 30.0305 18.8582 20.3605C22.8915 10.8138 24.9649 5.20714 25.0782 3.54047C25.0976 3.29355 25.1899 3.05796 25.3434 2.86359C25.4969 2.66923 25.7047 2.52485 25.9404 2.44878C26.1762 2.37271 26.4291 2.36838 26.6673 2.43633C26.9055 2.50429 27.1181 2.64147 27.2782 2.83047L28.3582 4.12047C28.9381 4.81208 29.3536 5.62584 29.5736 6.50055C29.7936 7.37525 29.8122 8.28811 29.6282 9.17047C29.1415 11.4905 27.8415 14.9071 25.7282 19.4205C24.9382 21.1105 24.0182 24.2805 23.9882 25.5305C23.9349 27.3838 24.8749 28.2005 26.8082 27.9805C30.5415 27.5538 32.6282 27.3938 33.0682 27.5005C33.2562 27.5441 33.4513 27.5461 33.6397 27.5064C33.828 27.4667 34.005 27.3861 34.1582 27.2705C41.6082 21.6605 39.4082 10.8605 44.7982 0.840471C44.8985 0.655995 45.0453 0.501978 45.223 0.39463C45.4008 0.287282 45.6029 0.230573 45.8082 0.230471H48.8182C48.921 0.230242 49.0228 0.251167 49.1172 0.291945C49.2117 0.332724 49.2967 0.392484 49.367 0.467513C49.4374 0.542541 49.4915 0.631235 49.5261 0.728081C49.5607 0.824926 49.5751 0.927855 49.5682 1.03047C49.0482 8.05047 47.6115 14.9638 45.2582 21.7705C42.2882 30.3405 37.7182 41.3305 35.8282 51.2505C35.8125 51.3286 35.7804 51.4026 35.7338 51.4673C35.6873 51.5321 35.6275 51.5861 35.5584 51.6259C35.4893 51.6657 35.4125 51.6902 35.3331 51.6979C35.2537 51.7056 35.1736 51.6962 35.0982 51.6705Z" fill="white"/>
<path d="M126.101 0.918346C124.031 11.3183 116.911 23.1483 114.541 35.0083C114.48 35.3053 114.523 35.6142 114.662 35.8834C114.802 36.1525 115.03 36.3654 115.308 36.4863C115.586 36.6071 115.897 36.6285 116.189 36.547C116.481 36.4654 116.736 36.2858 116.911 36.0383C119.421 32.5683 122.381 28.1283 127.581 29.4983C127.742 29.5425 127.891 29.6195 128.021 29.7245C128.15 29.8295 128.255 29.9602 128.331 30.1083C131.578 36.5017 132.825 43.5417 132.071 51.2283C132.063 51.3268 132.029 51.4215 131.974 51.5037C131.919 51.5859 131.845 51.6529 131.757 51.6987C131.669 51.7445 131.572 51.7676 131.473 51.7658C131.374 51.764 131.277 51.7373 131.191 51.6883C126.661 49.1383 126.451 41.9683 125.961 36.7883C125.952 36.6848 125.921 36.5843 125.871 36.4933C125.82 36.4023 125.752 36.3227 125.669 36.2597C125.586 36.1967 125.491 36.1516 125.39 36.1273C125.289 36.1029 125.184 36.0999 125.081 36.1183C121.611 36.7583 119.161 39.5983 116.551 42.3383C114.101 44.9283 111.431 46.3183 108.401 44.1083C108.269 44.0095 108.166 43.876 108.104 43.7225C108.042 43.5691 108.024 43.4015 108.051 43.2383C110.365 28.4917 114.835 14.3783 121.461 0.898346C121.579 0.656876 121.766 0.456256 121.997 0.322518C122.229 0.18878 122.495 0.128098 122.761 0.148346L125.661 0.338346C125.73 0.342563 125.798 0.361633 125.859 0.394253C125.92 0.426873 125.973 0.472273 126.014 0.527347C126.056 0.582421 126.086 0.64587 126.101 0.713354C126.116 0.780837 126.116 0.850762 126.101 0.918346Z" fill="white"/>
<path d="M209.402 18.05C207.275 21.7834 205.875 24.6767 205.202 26.73C203.215 32.77 201.175 40.2467 199.082 49.16C199.061 49.2684 199.003 49.3661 198.918 49.4367C198.833 49.5073 198.727 49.5465 198.616 49.5477C198.506 49.5489 198.398 49.5119 198.312 49.4431C198.226 49.3744 198.166 49.2779 198.142 49.17C195.882 40.4 197.312 31.17 200.262 22.73C200.889 20.9367 203.532 13.6 208.192 0.72004C208.256 0.544 208.376 0.393422 208.532 0.290717C208.689 0.188012 208.875 0.138672 209.062 0.15004L212.192 0.36004C212.36 0.371245 212.52 0.43364 212.652 0.538983C212.784 0.644326 212.882 0.787658 212.932 0.95004C214.962 7.40004 215.512 14.23 216.262 18.99C216.629 21.37 217.262 23.51 218.162 25.41C218.211 25.5131 218.292 25.5972 218.393 25.6496C218.494 25.702 218.61 25.7197 218.722 25.7C232.252 23.53 229.512 7.48004 241.112 2.29004C241.208 2.24724 241.312 2.22717 241.417 2.23139C241.522 2.2356 241.624 2.264 241.716 2.31435C241.808 2.3647 241.887 2.43564 241.947 2.52163C242.007 2.60762 242.047 2.70633 242.062 2.81004C243.142 9.79004 239.832 14.88 237.442 20.45C236.989 21.49 236.569 23.2134 236.182 25.62C236.129 25.9454 236.035 26.2645 235.902 26.57C233.812 31.19 233.482 36.68 232.362 41.06C231.515 44.3734 229.589 46.6267 226.582 47.82C226.432 47.88 226.268 47.8974 226.108 47.8701C225.948 47.8429 225.799 47.7721 225.677 47.6656C225.555 47.5592 225.465 47.4211 225.416 47.2666C225.368 47.1121 225.363 46.9472 225.402 46.79L229.862 29.31C229.94 29.0065 229.929 28.6871 229.831 28.3895C229.733 28.0919 229.552 27.8287 229.309 27.6309C229.066 27.4331 228.771 27.3091 228.46 27.2735C228.148 27.2379 227.833 27.2922 227.552 27.43C223.282 29.51 219.552 31.61 214.742 30.42C214.593 30.3819 214.454 30.3134 214.332 30.2189C214.21 30.1243 214.108 30.0057 214.032 29.87C212.119 26.3567 210.995 24.2567 210.662 23.57C210.435 23.1034 210.129 21.2867 209.742 18.12C209.739 18.0807 209.724 18.0433 209.698 18.0135C209.672 17.9838 209.637 17.9634 209.599 17.9555C209.56 17.9475 209.52 17.9525 209.484 17.9695C209.449 17.9866 209.42 18.0149 209.402 18.05Z" fill="white"/>
<path d="M149.197 7.1109C149.187 6.94494 149.222 6.77943 149.299 6.63196C149.376 6.48449 149.491 6.36058 149.633 6.27339C149.774 6.1862 149.937 6.139 150.103 6.1368C150.269 6.1346 150.433 6.17749 150.577 6.2609L151.817 6.9709C152.251 7.22197 152.619 7.57207 152.892 7.99264C153.165 8.4132 153.334 8.89232 153.387 9.3909C153.574 11.2576 153.134 12.7876 152.067 13.9809C151.876 14.1953 151.625 14.3481 151.347 14.4198C151.068 14.4914 150.775 14.4788 150.504 14.3834C150.233 14.288 149.996 14.1143 149.824 13.8841C149.652 13.654 149.552 13.3779 149.537 13.0909L149.197 7.1109Z" fill="white"/>
<path d="M249.168 45.3791C247.048 41.4124 246.978 37.0924 248.958 32.4191C251.408 26.6191 257.008 21.0391 263.248 21.0391C266.754 21.0391 269.404 23.0524 271.198 27.0791C271.398 27.5327 271.441 28.0399 271.318 28.5191C268.538 39.2991 261.338 45.8091 249.958 45.8591C249.795 45.8591 249.635 45.8143 249.496 45.7297C249.356 45.645 249.243 45.5237 249.168 45.3791ZM252.378 39.4991C260.308 39.8691 264.238 35.6591 266.798 28.6691C266.86 28.4941 266.856 28.3026 266.788 28.1299C266.72 27.9572 266.592 27.8148 266.428 27.7291C258.488 23.5591 252.438 31.6891 251.828 38.8691C251.821 38.9469 251.83 39.0252 251.854 39.0995C251.878 39.1737 251.917 39.2423 251.969 39.3012C252.02 39.36 252.083 39.4079 252.153 39.4419C252.223 39.4759 252.3 39.4953 252.378 39.4991Z" fill="white"/>
<path d="M277.468 45.8591C277.306 45.86 277.147 45.8168 277.008 45.734C276.868 45.6511 276.755 45.5319 276.678 45.3891C274.551 41.4224 274.475 37.1024 276.448 32.4291C278.898 26.6291 284.488 21.0391 290.728 21.0391C294.235 21.0324 296.885 23.0424 298.678 27.0691C298.879 27.5227 298.921 28.03 298.798 28.5091C296.038 39.2891 288.838 45.7991 277.468 45.8591ZM279.868 39.4891C287.788 39.8691 291.728 35.6591 294.288 28.6791C294.35 28.5041 294.347 28.3126 294.279 28.1399C294.211 27.9672 294.083 27.8248 293.918 27.7391C285.988 23.5591 279.928 31.6791 279.318 38.8591C279.311 38.9369 279.32 39.0153 279.344 39.0895C279.369 39.1638 279.408 39.2324 279.459 39.2912C279.51 39.35 279.573 39.3979 279.643 39.4319C279.714 39.4659 279.79 39.4853 279.868 39.4891Z" fill="white"/>
<path d="M147.584 24.7083C143.114 32.3183 140.044 40.5883 139.934 49.3483C139.931 49.4255 139.909 49.5011 139.868 49.5669C139.828 49.6327 139.771 49.6863 139.703 49.7222C139.635 49.758 139.56 49.7747 139.484 49.7705C139.409 49.7663 139.336 49.7414 139.274 49.6983C132.804 45.3383 137.414 35.0383 139.824 28.3483C140.604 26.2016 141.044 24.435 141.144 23.0483C141.162 22.7736 141.251 22.5082 141.401 22.2772C141.551 22.0463 141.757 21.8573 142 21.7282C142.243 21.5991 142.515 21.5341 142.791 21.5394C143.066 21.5446 143.335 21.62 143.574 21.7583L147.384 23.9583C147.446 23.9931 147.501 24.0403 147.545 24.097C147.589 24.1537 147.621 24.2188 147.64 24.2886C147.658 24.3584 147.663 24.4314 147.653 24.5035C147.644 24.5755 147.62 24.6451 147.584 24.7083Z" fill="white"/>
<path d="M309.712 31.7113C311.272 31.8113 312.505 31.6179 313.412 31.1313C316.632 29.3979 319.589 28.9046 322.282 29.6513C322.577 29.7345 322.831 29.9314 322.992 30.2013C323.925 31.7546 324.415 33.2779 324.462 34.7713C324.535 37.4513 324.535 40.9946 324.462 45.4013C324.46 45.4874 324.433 45.5714 324.386 45.6438C324.339 45.7161 324.274 45.7739 324.196 45.8104C324.119 45.8469 324.034 45.8607 323.95 45.8503C323.866 45.8398 323.787 45.8055 323.722 45.7513C320.929 43.5313 319.719 40.5046 320.092 36.6713C320.101 36.5832 320.091 36.4942 320.061 36.4106C320.032 36.327 319.985 36.251 319.923 36.1879C319.861 36.1248 319.785 36.0762 319.702 36.0457C319.619 36.0152 319.53 36.0034 319.442 36.0113C312.572 36.5313 308.382 39.8913 305.122 45.4913C305.074 45.5694 305.009 45.6356 304.932 45.6846C304.855 45.7337 304.768 45.7643 304.678 45.774C304.588 45.7837 304.497 45.7722 304.412 45.7405C304.328 45.7088 304.253 45.6577 304.192 45.5913C298.962 39.9413 307.592 30.1413 306.292 24.4113C306.274 24.3364 306.272 24.2587 306.284 24.1828C306.297 24.1069 306.324 24.0343 306.365 23.9691C306.406 23.904 306.46 23.8476 306.523 23.8033C306.586 23.7591 306.657 23.7278 306.732 23.7113C307.985 23.4313 308.965 23.4579 309.672 23.7913C310.101 23.9893 310.457 24.3386 310.688 24.7904C310.919 25.2422 311.015 25.7739 310.962 26.3113C310.775 28.1246 310.255 29.7246 309.402 31.1113C309.367 31.1705 309.348 31.2376 309.346 31.3062C309.344 31.3748 309.359 31.4425 309.39 31.5028C309.421 31.5631 309.467 31.614 309.524 31.6505C309.58 31.687 309.645 31.7079 309.712 31.7113Z" fill="white"/>
<path d="M58.3771 25.891C58.5332 25.8338 58.7015 25.8182 58.8655 25.8456C59.0294 25.873 59.1835 25.9426 59.3125 26.0474C59.4415 26.1522 59.5411 26.2888 59.6015 26.4437C59.6619 26.5986 59.6811 26.7665 59.6571 26.931C59.3504 29.0377 58.5704 32.0843 57.3171 36.071C57.0038 37.071 57.0104 38.6577 57.3371 40.831C57.3476 40.9055 57.3735 40.9769 57.4132 41.0408C57.4529 41.1047 57.5055 41.1595 57.5676 41.2019C57.6297 41.2443 57.7 41.2732 57.774 41.2868C57.848 41.3004 57.9239 41.2984 57.9971 41.281C62.0071 40.311 63.8671 36.011 64.6571 32.301C64.6981 32.1093 64.7802 31.9287 64.8975 31.7716C65.0149 31.6145 65.1648 31.4847 65.3371 31.391C68.3771 29.7643 70.7571 27.371 72.4771 24.211C72.5584 24.0578 72.6905 23.9369 72.8521 23.868C73.0136 23.799 73.1951 23.786 73.3671 23.831C77.2371 24.861 77.5771 28.501 77.5571 32.081C77.5438 33.9277 77.4571 35.5543 77.2971 36.961C76.7438 41.7343 76.6004 45.8277 76.8671 49.241C76.8737 49.3171 76.8622 49.3936 76.8333 49.4645C76.8044 49.5353 76.759 49.5985 76.7007 49.649C76.6424 49.6995 76.5729 49.736 76.4976 49.7554C76.4223 49.7749 76.3434 49.7768 76.2671 49.761C71.5071 48.761 72.2371 41.531 72.8371 37.521C72.9371 36.8477 72.8971 36.401 72.7171 36.181C72.5377 35.9661 72.3107 35.7955 72.0502 35.6798C71.7898 35.5642 71.5014 35.5059 71.2032 35.5088C70.9049 35.5116 70.603 35.5754 70.3164 35.6962C70.0298 35.817 69.7645 35.9922 69.5371 36.211C66.8871 38.771 64.2171 43.741 60.3871 45.351C57.7471 46.4643 55.6838 46.3877 54.1971 45.121C52.8038 43.941 51.9471 41.9943 51.6271 39.281C51.0371 34.251 53.1571 27.821 58.3771 25.891Z" fill="white"/>
<path d="M100.78 33.4713C100.778 33.5678 100.751 33.6621 100.702 33.7452C100.653 33.8283 100.584 33.8973 100.5 33.9456C100.417 33.9938 100.322 34.0197 100.226 34.0208C100.129 34.0218 100.034 33.9979 99.9496 33.9513C94.1496 30.8013 89.4796 34.3313 87.1396 39.6113C87.0262 39.8513 87.0663 40.098 87.2596 40.3513C87.3283 40.4411 87.4126 40.5177 87.507 40.5764C87.6014 40.6351 87.7039 40.6746 87.8082 40.6925C87.9124 40.7103 88.0161 40.7061 88.1127 40.6801C88.2093 40.6541 88.2968 40.6068 88.3696 40.5413C91.0196 38.1013 94.3996 35.6713 98.2696 37.3713C98.3976 37.4262 98.5013 37.5261 98.5619 37.6528C98.6225 37.7794 98.6359 37.9245 98.5996 38.0613C96.8396 44.7113 108.09 41.8813 106.6 49.2813C106.571 49.4374 106.482 49.5763 106.352 49.6693C106.221 49.7624 106.06 49.8025 105.9 49.7813C100.56 49.0413 96.8762 46.7247 94.8496 42.8313C94.7677 42.6722 94.6501 42.5342 94.506 42.4281C94.3619 42.322 94.1953 42.2506 94.019 42.2196C93.8428 42.1886 93.6617 42.1988 93.4901 42.2495C93.3184 42.3001 93.1608 42.3897 93.0296 42.5113C91.4362 43.9913 90.2696 45.2047 89.5296 46.1513C87.1596 49.2113 84.7996 50.4613 81.2196 49.9613C81.0456 49.9348 80.8857 49.8502 80.7659 49.7213C80.6461 49.5924 80.5734 49.4268 80.5596 49.2513C79.5996 37.7013 85.7596 30.8213 94.1196 24.1013C94.3685 23.9049 94.6659 23.7804 94.9796 23.7413C101.23 23.0213 100.89 29.1913 100.78 33.4713Z" fill="white"/>
<path d="M162.19 31.5313C163.33 31.4379 165.297 30.7813 168.09 29.5613C168.824 29.2346 170.3 29.2246 172.52 29.5313C172.696 29.5562 172.862 29.623 173.005 29.7259C173.148 29.8287 173.263 29.9644 173.34 30.1213C175.4 34.3546 176.657 37.8013 177.11 40.4613C177.224 41.1079 177.27 42.7513 177.25 45.3913C177.251 45.5448 177.195 45.6928 177.093 45.8059C176.991 45.9189 176.851 45.9887 176.7 46.0013C171.88 46.4013 172.18 41.5013 171.55 38.2513C170.93 35.0413 166.47 35.9013 164.22 36.9913C160.31 38.8913 159.18 44.0613 153.88 45.7413C153.809 45.7627 153.733 45.7674 153.659 45.7552C153.586 45.7429 153.516 45.714 153.455 45.6705C153.394 45.6271 153.344 45.5704 153.309 45.5046C153.273 45.4389 153.253 45.3659 153.25 45.2913C152.98 37.6113 156.22 31.0813 159.07 24.1113C159.109 24.0143 159.172 23.9288 159.253 23.8627C159.334 23.7965 159.43 23.7519 159.533 23.7329C159.636 23.714 159.742 23.7213 159.841 23.7542C159.94 23.7872 160.029 23.8446 160.1 23.9213C161.88 25.8213 161.56 28.6413 161.5 30.8813C161.497 30.97 161.513 31.0585 161.547 31.1407C161.581 31.223 161.632 31.2972 161.697 31.3586C161.762 31.42 161.84 31.4671 161.925 31.4969C162.01 31.5266 162.1 31.5383 162.19 31.5313Z" fill="white"/>
<path d="M83.5072 53.8798C83.6673 53.9431 83.803 54.0557 83.8947 54.2014C83.9864 54.347 84.0293 54.5181 84.0172 54.6897L83.9672 55.3198C83.9624 55.4114 83.9359 55.5006 83.8899 55.5801C83.8439 55.6595 83.7797 55.7269 83.7026 55.7767C83.6255 55.8265 83.5376 55.8573 83.4463 55.8665C83.355 55.8757 83.2628 55.8631 83.1772 55.8298C80.6972 54.9098 76.7472 54.6397 76.7072 58.2097C76.6672 62.3097 84.5572 61.4597 84.9072 66.7697C85.3172 72.9297 79.0272 74.1097 74.5172 72.0897C74.3818 72.0275 74.2682 71.9265 74.1915 71.7998C74.1148 71.6731 74.0784 71.5267 74.0872 71.3797L74.1472 70.5398C74.1513 70.4621 74.1738 70.3864 74.2128 70.3192C74.2519 70.2519 74.3064 70.1949 74.3719 70.1528C74.4374 70.1108 74.5119 70.085 74.5894 70.0775C74.6668 70.07 74.7449 70.0811 74.8172 70.1098C76.8672 70.9198 79.1572 71.5397 80.9672 70.5197C83.6072 69.0397 82.6872 65.6097 80.2372 64.4497C77.8439 63.3164 76.3839 62.5131 75.8572 62.0398C75.605 61.814 75.3831 61.5551 75.1972 61.2698C73.0972 58.0198 74.7272 54.3297 78.4572 53.4597C80.1306 53.0664 81.8139 53.2064 83.5072 53.8798Z" fill="white"/>
<path d="M137.463 72.7416C135.769 73.0816 134.633 72.6316 134.053 71.3916C134.013 71.3065 133.954 71.2317 133.881 71.1726C133.808 71.1135 133.723 71.0719 133.631 71.0507C133.54 71.0295 133.444 71.0293 133.353 71.0503C133.261 71.0712 133.176 71.1127 133.103 71.1716C130.249 73.4182 127.369 73.6349 124.463 71.8216C124.159 71.6303 123.897 71.3749 123.693 71.0716C121.926 68.4249 122.109 65.8649 124.243 63.3916C124.348 63.2659 124.477 63.1608 124.623 63.0816C125.069 62.8482 125.416 62.5849 125.663 62.2916C125.762 62.1694 125.819 62.0183 125.826 61.86C125.834 61.7018 125.79 61.5447 125.703 61.4116C124.189 59.0982 124.139 56.9749 125.553 55.0416C129.483 49.6616 137.953 56.8716 129.823 62.1716C129.751 62.2188 129.69 62.2804 129.644 62.3522C129.597 62.4241 129.567 62.5046 129.553 62.5886C129.54 62.6726 129.545 62.7581 129.567 62.8396C129.589 62.9211 129.629 62.9967 129.683 63.0616L133.373 67.4616C133.413 67.5115 133.466 67.5496 133.526 67.572C133.587 67.5945 133.652 67.6004 133.715 67.5891C133.778 67.5779 133.837 67.55 133.886 67.5082C133.935 67.4664 133.972 67.4123 133.993 67.3516L135.673 62.3016C135.684 62.2677 135.706 62.2385 135.737 62.2186C135.768 62.1986 135.805 62.1891 135.843 62.1916L137.243 62.2816C137.274 62.284 137.304 62.2928 137.332 62.3074C137.36 62.3219 137.384 62.342 137.404 62.3663C137.423 62.3907 137.438 62.4188 137.446 62.4489C137.455 62.479 137.457 62.5106 137.453 62.5416C137.186 65.0282 136.459 67.1349 135.273 68.8616C135.191 68.9798 135.151 69.1219 135.159 69.2662C135.166 69.4106 135.22 69.5494 135.313 69.6616L137.593 72.3816C137.618 72.4111 137.635 72.4468 137.642 72.4851C137.649 72.5234 137.646 72.5628 137.632 72.5994C137.619 72.636 137.597 72.6685 137.567 72.6934C137.537 72.7184 137.501 72.735 137.463 72.7416ZM128.193 61.0116C128.213 61.0116 128.249 61.0016 128.303 60.9816C129.456 60.5549 130.343 59.8449 130.963 58.8516C131.813 57.4616 131.193 55.4116 129.573 55.0216C127.973 54.6416 126.473 56.1716 126.603 57.8016C126.703 58.9682 127.166 60.0049 127.993 60.9116C128.033 60.9516 128.099 60.9849 128.193 61.0116ZM132.073 69.0416L127.363 63.5916C127.326 63.5489 127.282 63.514 127.232 63.4889C127.182 63.4637 127.127 63.4488 127.071 63.4451C127.015 63.4414 126.959 63.4489 126.906 63.4672C126.853 63.4854 126.804 63.5141 126.763 63.5516L126.533 63.7516C126.078 64.1444 125.692 64.608 125.397 65.1158C125.102 65.6236 124.904 66.1657 124.814 66.7109C124.724 67.2561 124.744 67.7938 124.872 68.2933C125.001 68.7927 125.235 69.2441 125.563 69.6216L125.853 69.9516C126.513 70.7126 127.509 71.1275 128.623 71.105C129.737 71.0825 130.877 70.6245 131.793 69.8316L132.033 69.6316C132.116 69.5584 132.167 69.4553 132.174 69.3448C132.182 69.2343 132.145 69.1253 132.073 69.0416Z" fill="white"/>
<path d="M155.527 68.3612C155.538 68.3969 155.56 68.4282 155.59 68.4508C155.62 68.4733 155.656 68.4861 155.693 68.4872C155.731 68.4883 155.767 68.4777 155.799 68.4569C155.83 68.4361 155.853 68.4061 155.867 68.3712L160.667 53.9512C160.717 53.7945 160.82 53.6592 160.957 53.5669C161.095 53.4745 161.26 53.4302 161.427 53.4412L163.467 53.5812C163.583 53.5884 163.692 53.6373 163.773 53.7186C163.854 53.7998 163.902 53.9076 163.907 54.0212L164.947 72.1612C164.951 72.2551 164.936 72.3489 164.901 72.4365C164.867 72.5241 164.815 72.6035 164.748 72.6695C164.681 72.7355 164.601 72.7867 164.513 72.8197C164.425 72.8528 164.331 72.8669 164.237 72.8612L163.507 72.8112C163.291 72.7971 163.088 72.7051 162.936 72.5524C162.783 72.3997 162.691 72.1967 162.677 71.9812L161.847 57.3712C161.834 57.2336 161.785 57.1027 161.707 56.9912C161.093 56.1712 160.89 56.5745 161.097 58.2012C161.13 58.4478 161.063 58.8245 160.897 59.3312C159.79 62.7912 158.357 66.9945 156.597 71.9412C156.514 72.1669 156.363 72.3617 156.164 72.4979C155.966 72.6342 155.73 72.7052 155.491 72.7007C155.251 72.6963 155.019 72.6168 154.828 72.4733C154.638 72.3299 154.497 72.1297 154.427 71.9012L149.667 56.8512C149.663 56.8299 149.651 56.8112 149.633 56.799C149.615 56.7868 149.593 56.7822 149.572 56.7862C149.551 56.7901 149.532 56.8024 149.52 56.8202C149.507 56.838 149.503 56.8599 149.507 56.8812L148.827 72.2012C148.823 72.2835 148.803 72.3643 148.767 72.4387C148.732 72.5131 148.682 72.5798 148.621 72.6347C148.559 72.6897 148.487 72.7318 148.409 72.7587C148.332 72.7855 148.249 72.7966 148.167 72.7912L146.927 72.7112C146.869 72.7074 146.812 72.6921 146.76 72.6659C146.708 72.6397 146.662 72.6033 146.624 72.5587C146.586 72.5141 146.557 72.4621 146.538 72.4059C146.52 72.3497 146.513 72.2903 146.517 72.2312L147.757 53.9712C147.762 53.8949 147.782 53.8205 147.816 53.752C147.85 53.6836 147.897 53.6225 147.955 53.5723C148.012 53.5221 148.079 53.4838 148.152 53.4596C148.224 53.4354 148.301 53.4257 148.377 53.4312L150.467 53.5712C150.582 53.5795 150.692 53.622 150.783 53.6933C150.874 53.7645 150.941 53.8613 150.977 53.9712L155.527 68.3612Z" fill="white"/>
<path d="M91.25 60.7112C94.33 57.4212 98.81 58.4512 100.37 62.5112C101.76 66.1112 100.74 71.5312 96.46 72.8112C94.6533 73.3512 93.0267 72.9312 91.58 71.5512C91.5306 71.5046 91.4686 71.4734 91.4018 71.4614C91.3349 71.4494 91.266 71.4571 91.2034 71.4836C91.1409 71.5102 91.0874 71.5543 91.0495 71.6107C91.0116 71.6671 90.9909 71.7333 90.99 71.8012V77.9712C90.99 78.1197 90.931 78.2622 90.826 78.3672C90.721 78.4722 90.5785 78.5312 90.43 78.5312H89.04C88.9691 78.5312 88.8989 78.5172 88.8334 78.4901C88.7678 78.4629 88.7083 78.4232 88.6582 78.373C88.608 78.3229 88.5682 78.2634 88.5411 78.1978C88.514 78.1323 88.5 78.0621 88.5 77.9912V59.5312C88.5 59.3933 88.5548 59.261 88.6523 59.1635C88.7498 59.066 88.8821 59.0112 89.02 59.0112H90.23C90.3679 59.0112 90.5002 59.066 90.5977 59.1635C90.6952 59.261 90.75 59.3933 90.75 59.5312V60.5112C90.75 60.5691 90.7674 60.6258 90.7999 60.6738C90.8324 60.7218 90.8785 60.7589 90.9323 60.7804C90.9861 60.802 91.0451 60.8069 91.1018 60.7945C91.1584 60.7822 91.21 60.7532 91.25 60.7112ZM94.8002 60.6224C93.7687 60.6008 92.7679 61.1341 92.0179 62.105C91.2679 63.076 90.8301 64.405 90.8009 65.7997C90.7717 67.1944 91.1534 68.5406 91.8621 69.5421C92.5708 70.5436 93.5484 71.1184 94.5798 71.14C95.6113 71.1616 96.6121 70.6283 97.3621 69.6573C98.1121 68.6864 98.5499 67.3574 98.5791 65.9627C98.6083 64.568 98.2266 63.2218 97.5179 62.2203C96.8092 61.2188 95.8316 60.644 94.8002 60.6224Z" fill="white"/>
<path d="M110.084 64.0811C110.228 64.0844 110.371 64.0534 110.501 63.9904C110.631 63.9275 110.744 63.8346 110.831 63.7193C110.918 63.604 110.977 63.4697 111.001 63.3274C111.026 63.1851 111.017 63.039 110.974 62.9011L110.794 62.3311C110.673 61.948 110.448 61.6055 110.145 61.3409C109.842 61.0764 109.471 60.9 109.074 60.8311C107.834 60.6111 106.604 60.7711 105.384 61.3111C105.294 61.3523 105.196 61.3734 105.098 61.3731C104.999 61.3727 104.901 61.3508 104.812 61.309C104.722 61.2671 104.643 61.2062 104.579 61.1306C104.516 61.055 104.47 60.9664 104.444 60.8711L104.424 60.8011C104.365 60.5749 104.385 60.3352 104.481 60.1222C104.578 59.9092 104.745 59.7358 104.954 59.6311C108.984 57.6511 113.314 58.9411 113.464 64.0311C113.497 65.1777 113.527 67.9211 113.554 72.2611C113.554 72.3407 113.538 72.4196 113.506 72.4927C113.475 72.5658 113.428 72.6316 113.37 72.686C113.312 72.7404 113.243 72.7823 113.168 72.809C113.093 72.8356 113.013 72.8466 112.934 72.8411L111.854 72.7711C111.711 72.7609 111.578 72.6947 111.483 72.5864C111.388 72.4782 111.338 72.3364 111.344 72.1911C111.35 71.9911 111.354 71.8844 111.354 71.8711C111.341 71.7822 111.305 71.6985 111.248 71.629C111.191 71.5595 111.116 71.5069 111.032 71.477C110.947 71.4471 110.856 71.4409 110.768 71.4593C110.68 71.4777 110.599 71.5198 110.534 71.5811C107.944 73.9411 103.804 73.2711 103.344 69.6111C102.864 65.8111 106.904 63.9811 110.084 64.0811ZM110.874 65.8411C110.8 65.7677 110.734 65.7244 110.674 65.7111C109.4 65.4511 108.207 65.5944 107.094 66.1411C105.554 66.9011 104.964 69.0911 106.184 70.3411C107.414 71.6011 109.624 71.0511 110.414 69.5211C110.98 68.4211 111.144 67.2311 110.904 65.9511C110.897 65.8911 110.887 65.8544 110.874 65.8411Z" fill="white"/>
<path d="M174.824 64.0713C174.967 64.0742 175.109 64.0431 175.238 63.9808C175.367 63.9184 175.479 63.8265 175.566 63.7125C175.653 63.5984 175.711 63.4655 175.737 63.3246C175.763 63.1836 175.755 63.0386 175.714 62.9013L175.534 62.3313C175.415 61.9499 175.193 61.6083 174.891 61.3438C174.589 61.0793 174.22 60.902 173.824 60.8313C172.584 60.6113 171.354 60.768 170.134 61.3013C170.044 61.3425 169.946 61.3637 169.848 61.3633C169.749 61.363 169.651 61.3411 169.562 61.2992C169.472 61.2573 169.393 61.1965 169.329 61.1209C169.266 61.0452 169.22 60.9567 169.194 60.8613L169.174 60.8013C169.115 60.5751 169.135 60.3354 169.231 60.1224C169.328 59.9094 169.495 59.7361 169.704 59.6313C173.734 57.6513 178.054 58.9413 178.204 64.0213C178.23 65.168 178.257 67.908 178.284 72.2413C178.284 72.321 178.268 72.3998 178.236 72.4729C178.205 72.546 178.158 72.6119 178.1 72.6663C178.042 72.7207 177.973 72.7625 177.898 72.7892C177.823 72.8159 177.743 72.8268 177.664 72.8213L176.584 72.7513C176.441 72.7412 176.308 72.6749 176.213 72.5667C176.118 72.4584 176.068 72.3167 176.074 72.1713C176.08 71.9713 176.084 71.8647 176.084 71.8513C176.07 71.7644 176.033 71.6827 175.977 71.6149C175.921 71.547 175.848 71.4956 175.765 71.4659C175.682 71.4362 175.593 71.4294 175.506 71.4462C175.42 71.463 175.34 71.5028 175.274 71.5613C172.684 73.9113 168.554 73.2413 168.094 69.5913C167.614 65.7913 171.654 63.9713 174.824 64.0713ZM175.664 65.8713C175.59 65.798 175.524 65.7547 175.464 65.7413C174.19 65.488 173 65.638 171.894 66.1913C170.354 66.9613 169.784 69.1513 171.004 70.3913C172.254 71.6413 174.444 71.0813 175.234 69.5513C175.794 68.4513 175.95 67.2613 175.704 65.9813C175.69 65.9213 175.677 65.8847 175.664 65.8713Z" fill="white"/>
<path d="M189.424 59.3905C189.499 59.4221 189.561 59.4788 189.598 59.5504C189.634 59.6221 189.644 59.7037 189.624 59.7805L189.284 61.0805C189.274 61.1153 189.258 61.1479 189.236 61.1761C189.214 61.2043 189.186 61.2277 189.155 61.2446C189.124 61.2615 189.09 61.2717 189.056 61.2744C189.021 61.2772 188.986 61.2724 188.954 61.2605C186.334 60.3339 184.794 60.5805 184.334 62.0005C184.213 62.3731 184.23 62.7795 184.383 63.1511C184.536 63.5228 184.816 63.837 185.174 64.0405C186.114 64.5705 188.594 65.3705 189.464 66.6205C190.33 67.8672 190.5 69.0839 189.974 70.2705C188.634 73.3205 184.924 73.4705 182.104 72.2905C181.992 72.2438 181.901 72.1584 181.848 72.0499C181.795 71.9414 181.783 71.8173 181.814 71.7005L182.094 70.5805C182.114 70.5069 182.151 70.4388 182.201 70.3821C182.252 70.3253 182.315 70.2814 182.386 70.254C182.456 70.2266 182.532 70.2165 182.606 70.2246C182.681 70.2327 182.752 70.2588 182.814 70.3005C184.174 71.1939 185.507 71.3272 186.814 70.7005C187.153 70.5347 187.429 70.2703 187.606 69.9402C187.784 69.61 187.856 69.2286 187.814 68.8433C187.771 68.4579 187.616 68.0854 187.367 67.7721C187.118 67.4588 186.787 67.2183 186.414 67.0805C185.054 66.5872 183.814 65.8305 182.694 64.8105C182.434 64.5773 182.259 64.2646 182.194 63.9205C181.264 59.1305 185.714 57.9605 189.424 59.3905Z" fill="white"/>
<path d="M200.424 59.3905C200.499 59.4221 200.561 59.4788 200.598 59.5504C200.634 59.6221 200.644 59.7037 200.624 59.7805L200.284 61.0805C200.274 61.1153 200.258 61.1479 200.236 61.1761C200.214 61.2043 200.186 61.2277 200.155 61.2446C200.124 61.2615 200.09 61.2717 200.056 61.2744C200.021 61.2772 199.986 61.2724 199.954 61.2605C197.334 60.3339 195.794 60.5805 195.334 62.0005C195.213 62.3731 195.23 62.7795 195.383 63.1511C195.536 63.5228 195.816 63.837 196.174 64.0405C197.114 64.5705 199.594 65.3705 200.464 66.6205C201.33 67.8672 201.5 69.0805 200.974 70.2605C199.634 73.3105 195.924 73.4605 193.104 72.2805C192.992 72.2338 192.901 72.1484 192.848 72.0399C192.795 71.9314 192.783 71.8073 192.814 71.6905L193.094 70.5705C193.114 70.4969 193.151 70.4288 193.201 70.3721C193.252 70.3153 193.315 70.2714 193.386 70.244C193.456 70.2166 193.532 70.2066 193.606 70.2146C193.681 70.2227 193.752 70.2488 193.814 70.2905C195.174 71.1839 196.507 71.3172 197.814 70.6905C198.15 70.5233 198.423 70.259 198.598 69.93C198.774 69.601 198.845 69.2216 198.802 68.8384C198.76 68.4551 198.606 68.0847 198.359 67.7724C198.112 67.4602 197.784 67.2197 197.414 67.0805C196.054 66.5872 194.814 65.8305 193.694 64.8105C193.434 64.5773 193.259 64.2646 193.194 63.9205C192.264 59.1305 196.714 57.9605 200.424 59.3905Z" fill="white"/>
<path d="M210.307 64.071C210.451 64.0728 210.592 64.0405 210.721 63.9769C210.85 63.9133 210.962 63.8202 211.048 63.7051C211.133 63.59 211.191 63.4563 211.215 63.3148C211.239 63.1733 211.23 63.0281 211.187 62.891L211.007 62.321C210.885 61.9366 210.659 61.5932 210.354 61.3285C210.049 61.0639 209.676 60.8882 209.277 60.821C208.037 60.6143 206.807 60.7844 205.587 61.331C205.497 61.3722 205.4 61.3934 205.301 61.393C205.202 61.3927 205.105 61.3708 205.015 61.3289C204.926 61.287 204.846 61.2262 204.783 61.1505C204.719 61.0749 204.673 60.9864 204.647 60.891L204.627 60.821C204.568 60.5948 204.588 60.3551 204.685 60.1421C204.781 59.9291 204.948 59.7557 205.157 59.651C209.177 57.641 213.507 58.911 213.687 64.001C213.727 65.1477 213.774 67.891 213.827 72.231C213.829 72.3115 213.813 72.3914 213.782 72.4657C213.751 72.54 213.705 72.6071 213.647 72.6626C213.589 72.7181 213.519 72.7608 213.444 72.7881C213.368 72.8154 213.287 72.8266 213.207 72.821L212.127 72.751C211.986 72.7409 211.855 72.676 211.76 72.5699C211.665 72.4639 211.614 72.3246 211.617 72.181C211.617 71.981 211.617 71.8743 211.617 71.861C211.605 71.7721 211.568 71.6884 211.511 71.6189C211.454 71.5494 211.38 71.4968 211.295 71.4669C211.211 71.437 211.119 71.4309 211.031 71.4492C210.944 71.4676 210.863 71.5097 210.797 71.571C208.217 73.941 204.077 73.301 203.597 69.641C203.097 65.841 207.127 63.991 210.307 64.071ZM211.187 65.881C211.114 65.8077 211.047 65.7677 210.987 65.761C209.707 65.501 208.514 65.6477 207.407 66.201C205.867 66.971 205.297 69.161 206.517 70.391C207.757 71.651 209.957 71.091 210.737 69.561C211.304 68.461 211.464 67.271 211.217 65.991C211.204 65.931 211.194 65.8943 211.187 65.881Z" fill="white"/>
<path d="M226.187 71.1305C221.797 75.0405 217.197 71.1505 217.057 66.2605C216.967 62.6105 219.067 58.7305 223.057 58.7305C224.631 58.7305 225.724 59.3138 226.337 60.4805C226.362 60.5299 226.401 60.5705 226.449 60.5963C226.498 60.6221 226.553 60.6318 226.608 60.624C226.662 60.6162 226.713 60.5913 226.752 60.553C226.792 60.5146 226.818 60.4647 226.827 60.4105C227.041 59.3971 227.647 58.9205 228.647 58.9805C228.805 58.9925 228.952 59.0604 229.061 59.1712C229.17 59.2819 229.233 59.4277 229.237 59.5805C229.331 62.0538 229.311 66.0271 229.177 71.5005C229.024 77.6071 225.654 79.8405 219.067 78.2005C218.923 78.164 218.789 78.0972 218.673 78.0044C218.557 77.9117 218.463 77.7953 218.396 77.6633C218.33 77.5313 218.293 77.3867 218.288 77.2395C218.283 77.0923 218.31 76.9459 218.367 76.8105L218.467 76.5505C218.51 76.4487 218.572 76.3564 218.651 76.279C218.729 76.2016 218.823 76.1406 218.925 76.0996C219.028 76.0587 219.137 76.0385 219.247 76.0404C219.358 76.0422 219.466 76.0661 219.567 76.1105C223.697 77.8705 227.047 76.3805 226.777 71.3805C226.773 71.3128 226.75 71.2475 226.711 71.192C226.671 71.1365 226.618 71.0932 226.556 71.0671C226.494 71.0409 226.427 71.033 226.362 71.0442C226.297 71.0554 226.236 71.0853 226.187 71.1305ZM223.27 60.6409C222.273 60.6287 221.31 61.1554 220.593 62.105C219.876 63.0546 219.464 64.3494 219.448 65.7046C219.431 67.0597 219.811 68.3642 220.505 69.331C221.198 70.2979 222.148 70.8479 223.145 70.8601C224.142 70.8722 225.105 70.3456 225.822 69.3959C226.539 68.4463 226.951 67.1515 226.967 65.7964C226.984 64.4412 226.603 63.1367 225.91 62.1699C225.217 61.2031 224.267 60.653 223.27 60.6409Z" fill="white"/>
<path d="M242.442 70.4796C242.494 70.4609 242.549 70.4527 242.604 70.4557C242.659 70.4587 242.713 70.4727 242.762 70.497C242.812 70.5213 242.856 70.5553 242.892 70.597C242.928 70.6386 242.955 70.6872 242.972 70.7396L243.322 71.8396C243.347 71.9136 243.341 71.9947 243.305 72.0656C243.27 72.1366 243.208 72.1918 243.132 72.2196C230.132 77.0596 229.582 58.9296 238.562 58.7896C242.482 58.7396 244.272 62.0096 244.262 65.6296C244.262 65.7967 244.197 65.957 244.08 66.0751C243.964 66.1933 243.807 66.2596 243.642 66.2596H235.362C235.284 66.2595 235.206 66.2753 235.134 66.3059C235.062 66.3366 234.998 66.3815 234.944 66.4378C234.891 66.4941 234.85 66.5606 234.823 66.6332C234.797 66.7058 234.787 66.7829 234.792 66.8596C235.022 71.0396 239.122 71.7596 242.442 70.4796ZM235.252 64.5296L241.512 64.4296C241.586 64.4296 241.658 64.4001 241.71 64.3476C241.763 64.2951 241.792 64.2239 241.792 64.1496L241.782 63.8796C241.776 63.4344 241.682 62.9949 241.506 62.5861C241.33 62.1773 241.075 61.8073 240.757 61.4971C240.438 61.187 240.062 60.9428 239.649 60.7785C239.237 60.6142 238.796 60.533 238.352 60.5396H238.292C237.848 60.5461 237.41 60.6403 237.002 60.8167C236.595 60.9931 236.226 61.2483 235.917 61.5677C235.607 61.8872 235.364 62.2646 235.2 62.6784C235.036 63.0923 234.955 63.5344 234.962 63.9796L234.972 64.2496C234.972 64.3239 235.002 64.3951 235.054 64.4476C235.107 64.5001 235.178 64.5296 235.252 64.5296Z" fill="white"/>
</svg>
