<svg width="2225" height="1920" viewBox="0 0 2225 1920" fill="none" xmlns="http://www.w3.org/2000/svg">
<path d="M1175.08 1058.86C1048.04 1058.86 931.752 1012.89 841.885 936.708C913.209 973.989 994.322 995.101 1080.38 995.099C1106.65 995.099 1132.45 993.111 1157.66 989.316C1043.41 984.597 930.556 938.652 843.331 851.428C756.107 764.203 710.164 651.346 705.443 537.104C701.65 562.312 699.66 588.113 699.66 614.38C699.658 700.435 720.771 781.55 758.051 852.874C681.872 763.007 635.899 646.721 635.899 519.682C635.899 234.92 866.743 4.0782 1151.5 4.07646C1128.17 1.38547 1104.43 0 1080.38 0C741.067 0 466 275.067 466 614.379C466 784.036 534.766 937.63 645.946 1048.81C757.126 1159.99 910.723 1228.76 1080.38 1228.76C1419.69 1228.76 1694.76 953.692 1694.76 614.38C1694.76 590.325 1693.37 566.592 1690.68 543.255C1690.68 828.016 1459.84 1058.86 1175.08 1058.86Z" fill="#F3CD77"/>
<path d="M1462.84 89.8828L1474 190.188L1574.31 201.351L1474 212.512L1462.84 312.817L1451.68 212.512L1351.37 201.351L1451.68 190.188L1462.84 89.8828Z" fill="#F3CD77"/>
<path d="M1149.82 319.742L1169.3 494.874L1344.43 514.364L1169.3 533.852L1149.82 708.983L1130.33 533.852L955.195 514.364L1130.33 494.874L1149.82 319.742Z" fill="#F3CD77"/>
<path d="M1436.67 168.067C1436.99 165.169 1435.73 162.305 1433.36 160.617C1364.06 111.398 1279.36 82.4375 1187.89 82.4375C1059.61 82.4375 944.622 139.348 866.797 229.295C943.86 148.966 1052.28 98.9481 1172.38 98.9481C1258.95 98.9481 1339.44 124.933 1406.5 169.516C1413.3 174.037 1421.45 176.077 1429.56 175.174C1433.3 174.758 1436.25 171.806 1436.67 168.067Z" fill="#F3CD77"/>
<path d="M1496.11 227.511C1492.37 227.927 1489.42 230.879 1489 234.618C1488.58 238.384 1489.79 242.132 1492.28 244.995C1556.76 319.296 1595.81 416.266 1595.81 522.371C1595.81 642.476 1545.79 750.894 1465.46 827.955C1555.41 750.128 1612.32 635.144 1612.32 506.867C1612.32 403.139 1575.09 308.117 1513.28 234.393C1509.07 229.37 1502.62 226.787 1496.11 227.511Z" fill="#F3CD77"/>
<path d="M58.2 1456H212.1V1489.3H58.2V1456ZM205.5 1375.9H245.4V1570H205.5V1375.9ZM23.1 1375.9H63V1570H23.1V1375.9ZM458.859 1570H419.859V1420.9H458.859V1570ZM421.959 1498.3L422.259 1508.5C421.859 1511.3 420.859 1515.4 419.259 1520.8C417.659 1526 415.159 1531.6 411.759 1537.6C408.559 1543.6 404.359 1549.4 399.159 1555C393.959 1560.4 387.559 1564.9 379.959 1568.5C372.359 1571.9 363.359 1573.6 352.959 1573.6C344.759 1573.6 336.659 1572.6 328.659 1570.6C320.859 1568.6 313.759 1565.3 307.359 1560.7C300.959 1555.9 295.859 1549.5 292.059 1541.5C288.259 1533.5 286.359 1523.4 286.359 1511.2V1420.9H325.359V1504.6C325.359 1514.2 326.859 1521.8 329.859 1527.4C333.059 1532.8 337.659 1536.6 343.659 1538.8C349.659 1541 356.759 1542.1 364.959 1542.1C375.759 1542.1 385.059 1539.8 392.859 1535.2C400.659 1530.4 406.959 1524.6 411.759 1517.8C416.759 1511 420.159 1504.5 421.959 1498.3ZM566.967 1573.3C552.167 1573.3 538.667 1570.1 526.467 1563.7C514.467 1557.1 504.867 1548 497.667 1536.4C490.667 1524.6 487.167 1511 487.167 1495.6C487.167 1479.8 490.767 1466.1 497.967 1454.5C505.167 1442.9 514.867 1433.9 527.067 1427.5C539.467 1420.9 553.467 1417.6 569.067 1417.6C586.267 1417.6 600.067 1421.1 610.467 1428.1C621.067 1434.9 628.767 1444.2 633.567 1456C638.367 1467.8 640.767 1481 640.767 1495.6C640.767 1504.4 639.367 1513.4 636.567 1522.6C633.767 1531.6 629.467 1540 623.667 1547.8C617.867 1555.4 610.267 1561.6 600.867 1566.4C591.467 1571 580.167 1573.3 566.967 1573.3ZM579.567 1543.3C591.367 1543.3 601.567 1541.3 610.167 1537.3C618.767 1533.3 625.367 1527.7 629.967 1520.5C634.567 1513.3 636.867 1505 636.867 1495.6C636.867 1485.4 634.467 1476.8 629.667 1469.8C625.067 1462.6 618.467 1457.2 609.867 1453.6C601.467 1449.8 591.367 1447.9 579.567 1447.9C562.967 1447.9 550.067 1452.3 540.867 1461.1C531.667 1469.7 527.067 1481.2 527.067 1495.6C527.067 1505.2 529.267 1513.6 533.667 1520.8C538.067 1527.8 544.167 1533.3 551.967 1537.3C559.967 1541.3 569.167 1543.3 579.567 1543.3ZM636.867 1420.9H675.867V1570H639.567C639.567 1570 639.267 1568.1 638.667 1564.3C638.267 1560.3 637.867 1555.3 637.467 1549.3C637.067 1543.3 636.867 1537.4 636.867 1531.6V1420.9ZM847.364 1570V1488.1C847.364 1479.9 845.964 1473.1 843.164 1467.7C840.364 1462.3 835.864 1458.2 829.664 1455.4C823.664 1452.6 815.564 1451.2 805.364 1451.2C795.564 1451.2 786.664 1453.1 778.664 1456.9C770.664 1460.5 764.164 1465.3 759.164 1471.3C754.164 1477.1 751.364 1483.3 750.764 1489.9L750.464 1473.4C751.464 1466.8 753.764 1460.2 757.364 1453.6C760.964 1447 765.764 1441 771.764 1435.6C777.764 1430.2 784.964 1425.9 793.364 1422.7C801.964 1419.3 811.564 1417.6 822.164 1417.6C831.364 1417.6 839.864 1418.8 847.664 1421.2C855.464 1423.4 862.264 1426.9 868.064 1431.7C873.864 1436.5 878.364 1442.5 881.564 1449.7C884.764 1456.7 886.364 1465 886.364 1474.6V1570H847.364ZM713.864 1570V1360.9H752.864V1570H713.864ZM966.509 1355.5V1389.7H921.209V1355.5H966.509ZM924.209 1420.9H963.209V1570H924.209V1420.9ZM1002.08 1420.9H1041.08V1570H1002.08V1420.9ZM1110.38 1417.6C1119.58 1417.6 1128.08 1418.8 1135.88 1421.2C1143.68 1423.6 1150.48 1427.3 1156.28 1432.3C1162.08 1437.3 1166.58 1443.7 1169.78 1451.5C1172.98 1459.1 1174.58 1468.2 1174.58 1478.8V1570H1135.58V1485.7C1135.58 1473.1 1132.48 1463.9 1126.28 1458.1C1120.28 1452.1 1110.38 1449.1 1096.58 1449.1C1086.18 1449.1 1076.78 1451.1 1068.38 1455.1C1059.98 1459.1 1053.18 1464.2 1047.98 1470.4C1042.78 1476.4 1039.78 1482.7 1038.98 1489.3L1038.68 1474C1039.68 1467 1041.98 1460.2 1045.58 1453.6C1049.18 1447 1053.98 1441 1059.98 1435.6C1066.18 1430 1073.48 1425.6 1081.88 1422.4C1090.28 1419.2 1099.78 1417.6 1110.38 1417.6ZM1438.45 1550.2H1419.55L1531.15 1375.9H1571.05V1570H1531.15V1429L1540.75 1431.7L1451.65 1570H1406.95L1317.85 1432.3L1327.45 1429.6V1570H1287.55V1375.9H1327.45L1438.45 1550.2ZM1699.94 1573.6C1681.14 1573.6 1664.54 1570.6 1650.14 1564.6C1635.94 1558.6 1624.84 1549.9 1616.84 1538.5C1608.84 1526.9 1604.84 1512.7 1604.84 1495.9C1604.84 1479.1 1608.84 1464.9 1616.84 1453.3C1624.84 1441.5 1635.94 1432.6 1650.14 1426.6C1664.54 1420.6 1681.14 1417.6 1699.94 1417.6C1718.74 1417.6 1735.14 1420.6 1749.14 1426.6C1763.34 1432.6 1774.44 1441.5 1782.44 1453.3C1790.44 1464.9 1794.44 1479.1 1794.44 1495.9C1794.44 1512.7 1790.44 1526.9 1782.44 1538.5C1774.44 1549.9 1763.34 1558.6 1749.14 1564.6C1735.14 1570.6 1718.74 1573.6 1699.94 1573.6ZM1699.94 1543.6C1710.34 1543.6 1719.64 1541.8 1727.84 1538.2C1736.24 1534.4 1742.84 1529 1747.64 1522C1752.44 1514.8 1754.84 1506.1 1754.84 1495.9C1754.84 1485.7 1752.44 1477 1747.64 1469.8C1742.84 1462.4 1736.34 1456.8 1728.14 1453C1719.94 1449.2 1710.54 1447.3 1699.94 1447.3C1689.54 1447.3 1680.14 1449.2 1671.74 1453C1663.34 1456.8 1656.64 1462.3 1651.64 1469.5C1646.84 1476.7 1644.44 1485.5 1644.44 1495.9C1644.44 1506.1 1646.84 1514.8 1651.64 1522C1656.44 1529 1663.04 1534.4 1671.44 1538.2C1679.84 1541.8 1689.34 1543.6 1699.94 1543.6ZM1911.17 1573.6C1892.37 1573.6 1875.77 1570.6 1861.37 1564.6C1847.17 1558.6 1836.07 1549.9 1828.07 1538.5C1820.07 1526.9 1816.07 1512.7 1816.07 1495.9C1816.07 1479.1 1820.07 1464.9 1828.07 1453.3C1836.07 1441.5 1847.17 1432.6 1861.37 1426.6C1875.77 1420.6 1892.37 1417.6 1911.17 1417.6C1929.97 1417.6 1946.37 1420.6 1960.37 1426.6C1974.57 1432.6 1985.67 1441.5 1993.67 1453.3C2001.67 1464.9 2005.67 1479.1 2005.67 1495.9C2005.67 1512.7 2001.67 1526.9 1993.67 1538.5C1985.67 1549.9 1974.57 1558.6 1960.37 1564.6C1946.37 1570.6 1929.97 1573.6 1911.17 1573.6ZM1911.17 1543.6C1921.57 1543.6 1930.87 1541.8 1939.07 1538.2C1947.47 1534.4 1954.07 1529 1958.87 1522C1963.67 1514.8 1966.07 1506.1 1966.07 1495.9C1966.07 1485.7 1963.67 1477 1958.87 1469.8C1954.07 1462.4 1947.57 1456.8 1939.37 1453C1931.17 1449.2 1921.77 1447.3 1911.17 1447.3C1900.77 1447.3 1891.37 1449.2 1882.97 1453C1874.57 1456.8 1867.87 1462.3 1862.87 1469.5C1858.07 1476.7 1855.67 1485.5 1855.67 1495.9C1855.67 1506.1 1858.07 1514.8 1862.87 1522C1867.67 1529 1874.27 1534.4 1882.67 1538.2C1891.07 1541.8 1900.57 1543.6 1911.17 1543.6ZM2034.5 1420.9H2073.5V1570H2034.5V1420.9ZM2142.8 1417.6C2152 1417.6 2160.5 1418.8 2168.3 1421.2C2176.1 1423.6 2182.9 1427.3 2188.7 1432.3C2194.5 1437.3 2199 1443.7 2202.2 1451.5C2205.4 1459.1 2207 1468.2 2207 1478.8V1570H2168V1485.7C2168 1473.1 2164.9 1463.9 2158.7 1458.1C2152.7 1452.1 2142.8 1449.1 2129 1449.1C2118.6 1449.1 2109.2 1451.1 2100.8 1455.1C2092.4 1459.1 2085.6 1464.2 2080.4 1470.4C2075.2 1476.4 2072.2 1482.7 2071.4 1489.3L2071.1 1474C2072.1 1467 2074.4 1460.2 2078 1453.6C2081.6 1447 2086.4 1441 2092.4 1435.6C2098.6 1430 2105.9 1425.6 2114.3 1422.4C2122.7 1419.2 2132.2 1417.6 2142.8 1417.6Z" fill="white"/>
<path d="M5.84 1651.08H204.984V1683.49H5.84V1651.08ZM86.14 1679.4H124.976V1840H86.14V1679.4ZM345.705 1840V1760.28C345.705 1752.3 344.343 1745.68 341.617 1740.43C338.892 1735.17 334.512 1731.18 328.477 1728.46C322.637 1725.73 314.753 1724.37 304.825 1724.37C295.287 1724.37 286.624 1726.22 278.837 1729.92C271.051 1733.42 264.724 1738.09 259.857 1743.93C254.991 1749.58 252.265 1755.61 251.681 1762.04L251.389 1745.98C252.363 1739.55 254.601 1733.13 258.105 1726.7C261.609 1720.28 266.281 1714.44 272.121 1709.18C277.961 1703.93 284.969 1699.74 293.145 1696.63C301.516 1693.32 310.86 1691.66 321.177 1691.66C330.132 1691.66 338.405 1692.83 345.997 1695.17C353.589 1697.31 360.208 1700.72 365.853 1705.39C371.499 1710.06 375.879 1715.9 378.993 1722.91C382.108 1729.72 383.665 1737.8 383.665 1747.14V1840H345.705ZM215.765 1840V1636.48H253.725V1840H215.765ZM488.829 1843.21C474.423 1843.21 461.283 1840.1 449.409 1833.87C437.729 1827.44 428.385 1818.59 421.377 1807.3C414.563 1795.81 411.157 1782.57 411.157 1767.58C411.157 1752.21 414.661 1738.87 421.669 1727.58C428.677 1716.29 438.118 1707.53 449.993 1701.3C462.062 1694.88 475.689 1691.66 490.873 1691.66C507.614 1691.66 521.046 1695.07 531.169 1701.88C541.486 1708.5 548.981 1717.55 553.653 1729.04C558.325 1740.53 560.661 1753.37 560.661 1767.58C560.661 1776.15 559.298 1784.91 556.573 1793.86C553.847 1802.62 549.662 1810.8 544.017 1818.39C538.371 1825.79 530.974 1831.82 521.825 1836.5C512.675 1840.97 501.677 1843.21 488.829 1843.21ZM501.093 1814.01C512.578 1814.01 522.506 1812.07 530.877 1808.17C539.247 1804.28 545.671 1798.83 550.149 1791.82C554.626 1784.81 556.865 1776.73 556.865 1767.58C556.865 1757.66 554.529 1749.29 549.857 1742.47C545.379 1735.46 538.955 1730.21 530.585 1726.7C522.409 1723.01 512.578 1721.16 501.093 1721.16C484.935 1721.16 472.379 1725.44 463.425 1734C454.47 1742.37 449.993 1753.57 449.993 1767.58C449.993 1776.93 452.134 1785.1 456.417 1792.11C460.699 1798.93 466.637 1804.28 474.229 1808.17C482.015 1812.07 490.97 1814.01 501.093 1814.01ZM556.865 1694.88H594.825V1840H559.493C559.493 1840 559.201 1838.15 558.617 1834.45C558.227 1830.56 557.838 1825.69 557.449 1819.85C557.059 1814.01 556.865 1808.27 556.865 1802.62V1694.88ZM672.688 1631.22V1664.51H628.596V1631.22H672.688ZM631.516 1694.88H669.476V1840H631.516V1694.88ZM929.587 1820.73H911.191L1019.81 1651.08H1058.65V1840H1019.81V1702.76L1029.16 1705.39L942.435 1840H898.927L812.203 1705.97L821.547 1703.34V1840H782.711V1651.08H821.547L929.587 1820.73ZM1169.21 1843.21C1154.81 1843.21 1141.67 1840.1 1129.79 1833.87C1118.11 1827.44 1108.77 1818.59 1101.76 1807.3C1094.95 1795.81 1091.54 1782.57 1091.54 1767.58C1091.54 1752.21 1095.04 1738.87 1102.05 1727.58C1109.06 1716.29 1118.5 1707.53 1130.38 1701.3C1142.44 1694.88 1156.07 1691.66 1171.26 1691.66C1188 1691.66 1201.43 1695.07 1211.55 1701.88C1221.87 1708.5 1229.36 1717.55 1234.04 1729.04C1238.71 1740.53 1241.04 1753.37 1241.04 1767.58C1241.04 1776.15 1239.68 1784.91 1236.96 1793.86C1234.23 1802.62 1230.04 1810.8 1224.4 1818.39C1218.75 1825.79 1211.36 1831.82 1202.21 1836.5C1193.06 1840.97 1182.06 1843.21 1169.21 1843.21ZM1181.48 1814.01C1192.96 1814.01 1202.89 1812.07 1211.26 1808.17C1219.63 1804.28 1226.05 1798.83 1230.53 1791.82C1235.01 1784.81 1237.25 1776.73 1237.25 1767.58C1237.25 1757.66 1234.91 1749.29 1230.24 1742.47C1225.76 1735.46 1219.34 1730.21 1210.97 1726.7C1202.79 1723.01 1192.96 1721.16 1181.48 1721.16C1165.32 1721.16 1152.76 1725.44 1143.81 1734C1134.85 1742.37 1130.38 1753.57 1130.38 1767.58C1130.38 1776.93 1132.52 1785.1 1136.8 1792.11C1141.08 1798.93 1147.02 1804.28 1154.61 1808.17C1162.4 1812.07 1171.35 1814.01 1181.48 1814.01ZM1237.25 1694.88H1275.21V1840H1239.88C1239.88 1840 1239.58 1838.15 1239 1834.45C1238.61 1830.56 1238.22 1825.69 1237.83 1819.85C1237.44 1814.01 1237.25 1808.27 1237.25 1802.62V1694.88ZM1303.72 1791.82H1338.76C1340.9 1798.44 1345.28 1803.89 1351.9 1808.17C1358.72 1812.26 1367.57 1814.3 1378.47 1814.3C1385.87 1814.3 1391.61 1813.62 1395.7 1812.26C1399.79 1810.9 1402.61 1808.95 1404.17 1806.42C1405.73 1803.69 1406.51 1800.68 1406.51 1797.37C1406.51 1793.28 1405.24 1790.17 1402.71 1788.02C1400.18 1785.69 1396.29 1783.84 1391.03 1782.48C1385.77 1781.11 1379.06 1779.85 1370.88 1778.68C1362.71 1777.32 1354.82 1775.66 1347.23 1773.72C1339.64 1771.77 1332.92 1769.24 1327.08 1766.12C1321.24 1762.81 1316.57 1758.73 1313.07 1753.86C1309.76 1748.8 1308.1 1742.67 1308.1 1735.46C1308.1 1728.46 1309.76 1722.23 1313.07 1716.78C1316.57 1711.33 1321.34 1706.75 1327.37 1703.05C1333.6 1699.35 1340.81 1696.53 1348.98 1694.58C1357.35 1692.64 1366.31 1691.66 1375.85 1691.66C1390.25 1691.66 1402.22 1693.81 1411.76 1698.09C1421.3 1702.18 1428.41 1708.02 1433.08 1715.61C1437.95 1723.01 1440.38 1731.57 1440.38 1741.3H1406.8C1405.24 1734.1 1402.13 1728.94 1397.45 1725.83C1392.78 1722.52 1385.58 1720.86 1375.85 1720.86C1366.31 1720.86 1359.11 1722.32 1354.24 1725.24C1349.37 1728.16 1346.94 1732.15 1346.94 1737.22C1346.94 1741.3 1348.4 1744.52 1351.32 1746.85C1354.43 1748.99 1358.91 1750.75 1364.75 1752.11C1370.79 1753.47 1378.28 1754.93 1387.23 1756.49C1394.83 1758.05 1402.03 1759.8 1408.84 1761.74C1415.85 1763.69 1422.08 1766.22 1427.53 1769.34C1432.98 1772.26 1437.26 1776.25 1440.38 1781.31C1443.69 1786.17 1445.34 1792.4 1445.34 1800C1445.34 1809.34 1442.62 1817.22 1437.17 1823.65C1431.91 1830.07 1424.32 1835.04 1414.39 1838.54C1404.46 1841.85 1392.59 1843.5 1378.77 1843.5C1366.5 1843.5 1355.89 1842.24 1346.94 1839.71C1338.18 1836.98 1330.88 1833.58 1325.04 1829.49C1319.2 1825.21 1314.62 1820.73 1311.31 1816.06C1308.2 1811.19 1306.06 1806.61 1304.89 1802.33C1303.72 1798.05 1303.33 1794.55 1303.72 1791.82ZM1468.54 1791.82H1503.58C1505.72 1798.44 1510.1 1803.89 1516.72 1808.17C1523.54 1812.26 1532.39 1814.3 1543.3 1814.3C1550.69 1814.3 1556.44 1813.62 1560.52 1812.26C1564.61 1810.9 1567.43 1808.95 1568.99 1806.42C1570.55 1803.69 1571.33 1800.68 1571.33 1797.37C1571.33 1793.28 1570.06 1790.17 1567.53 1788.02C1565 1785.69 1561.11 1783.84 1555.85 1782.48C1550.6 1781.11 1543.88 1779.85 1535.7 1778.68C1527.53 1777.32 1519.64 1775.66 1512.05 1773.72C1504.46 1771.77 1497.74 1769.24 1491.9 1766.12C1486.06 1762.81 1481.39 1758.73 1477.89 1753.86C1474.58 1748.8 1472.92 1742.67 1472.92 1735.46C1472.92 1728.46 1474.58 1722.23 1477.89 1716.78C1481.39 1711.33 1486.16 1706.75 1492.2 1703.05C1498.42 1699.35 1505.63 1696.53 1513.8 1694.58C1522.17 1692.64 1531.13 1691.66 1540.67 1691.66C1555.07 1691.66 1567.04 1693.81 1576.58 1698.09C1586.12 1702.18 1593.23 1708.02 1597.9 1715.61C1602.77 1723.01 1605.2 1731.57 1605.2 1741.3H1571.62C1570.06 1734.1 1566.95 1728.94 1562.28 1725.83C1557.6 1722.52 1550.4 1720.86 1540.67 1720.86C1531.13 1720.86 1523.93 1722.32 1519.06 1725.24C1514.19 1728.16 1511.76 1732.15 1511.76 1737.22C1511.76 1741.3 1513.22 1744.52 1516.14 1746.85C1519.25 1748.99 1523.73 1750.75 1529.57 1752.11C1535.61 1753.47 1543.1 1754.93 1552.06 1756.49C1559.65 1758.05 1566.85 1759.8 1573.66 1761.74C1580.67 1763.69 1586.9 1766.22 1592.35 1769.34C1597.8 1772.26 1602.08 1776.25 1605.2 1781.31C1608.51 1786.17 1610.16 1792.4 1610.16 1800C1610.16 1809.34 1607.44 1817.22 1601.99 1823.65C1596.73 1830.07 1589.14 1835.04 1579.21 1838.54C1569.28 1841.85 1557.41 1843.5 1543.59 1843.5C1531.32 1843.5 1520.71 1842.24 1511.76 1839.71C1503 1836.98 1495.7 1833.58 1489.86 1829.49C1484.02 1825.21 1479.44 1820.73 1476.14 1816.06C1473.02 1811.19 1470.88 1806.61 1469.71 1802.33C1468.54 1798.05 1468.15 1794.55 1468.54 1791.82ZM1709.87 1843.21C1695.46 1843.21 1682.32 1840.1 1670.45 1833.87C1658.77 1827.44 1649.42 1818.59 1642.42 1807.3C1635.6 1795.81 1632.2 1782.57 1632.2 1767.58C1632.2 1752.21 1635.7 1738.87 1642.71 1727.58C1649.72 1716.29 1659.16 1707.53 1671.03 1701.3C1683.1 1694.88 1696.73 1691.66 1711.91 1691.66C1728.65 1691.66 1742.08 1695.07 1752.21 1701.88C1762.52 1708.5 1770.02 1717.55 1774.69 1729.04C1779.36 1740.53 1781.7 1753.37 1781.7 1767.58C1781.7 1776.15 1780.34 1784.91 1777.61 1793.86C1774.89 1802.62 1770.7 1810.8 1765.06 1818.39C1759.41 1825.79 1752.01 1831.82 1742.86 1836.5C1733.71 1840.97 1722.72 1843.21 1709.87 1843.21ZM1722.13 1814.01C1733.62 1814.01 1743.54 1812.07 1751.92 1808.17C1760.29 1804.28 1766.71 1798.83 1771.19 1791.82C1775.66 1784.81 1777.9 1776.73 1777.9 1767.58C1777.9 1757.66 1775.57 1749.29 1770.9 1742.47C1766.42 1735.46 1759.99 1730.21 1751.62 1726.7C1743.45 1723.01 1733.62 1721.16 1722.13 1721.16C1705.97 1721.16 1693.42 1725.44 1684.46 1734C1675.51 1742.37 1671.03 1753.57 1671.03 1767.58C1671.03 1776.93 1673.17 1785.1 1677.46 1792.11C1681.74 1798.93 1687.68 1804.28 1695.27 1808.17C1703.05 1812.07 1712.01 1814.01 1722.13 1814.01ZM1777.9 1694.88H1815.86V1840H1780.53C1780.53 1840 1780.24 1838.15 1779.66 1834.45C1779.27 1830.56 1778.88 1825.69 1778.49 1819.85C1778.1 1814.01 1777.9 1808.27 1777.9 1802.62V1694.88ZM1922.64 1817.81C1906.87 1817.81 1892.95 1815.47 1880.88 1810.8C1869 1805.93 1859.76 1798.83 1853.14 1789.48C1846.52 1780.14 1843.21 1768.85 1843.21 1755.61C1843.21 1742.57 1846.42 1731.28 1852.85 1721.74C1859.27 1712.2 1868.42 1704.8 1880.3 1699.55C1892.36 1694.29 1906.48 1691.66 1922.64 1691.66C1927.11 1691.66 1931.4 1691.96 1935.48 1692.54C1939.77 1693.12 1943.95 1693.9 1948.04 1694.88L2021.33 1695.17V1723.78C2011.4 1723.98 2001.28 1722.81 1990.96 1720.28C1980.84 1717.55 1971.89 1714.63 1964.1 1711.52L1963.22 1709.48C1969.84 1712.59 1976.07 1716.48 1981.91 1721.16C1987.75 1725.63 1992.42 1730.89 1995.93 1736.92C1999.63 1742.76 2001.48 1749.58 2001.48 1757.36C2001.48 1770.02 1998.26 1780.92 1991.84 1790.07C1985.42 1799.02 1976.27 1805.93 1964.39 1810.8C1952.71 1815.47 1938.79 1817.81 1922.64 1817.81ZM1971.4 1899.86V1892.85C1971.4 1883.9 1968.48 1877.67 1962.64 1874.16C1956.99 1870.66 1949.21 1868.91 1939.28 1868.91H1894.02C1885.26 1868.91 1877.86 1868.23 1871.83 1866.86C1865.99 1865.5 1861.32 1863.55 1857.81 1861.02C1854.31 1858.49 1851.78 1855.48 1850.22 1851.97C1848.66 1848.66 1847.88 1845.06 1847.88 1841.17C1847.88 1833.38 1850.41 1827.54 1855.48 1823.65C1860.54 1819.56 1867.35 1816.83 1875.92 1815.47C1884.48 1814.11 1893.92 1813.82 1904.24 1814.6L1922.64 1817.81C1910.37 1818.2 1901.22 1819.27 1895.19 1821.02C1889.35 1822.58 1886.43 1825.79 1886.43 1830.66C1886.43 1833.58 1887.6 1835.91 1889.93 1837.66C1892.27 1839.22 1895.58 1840 1899.86 1840H1947.46C1960.5 1840 1971.59 1841.36 1980.74 1844.09C1990.09 1847.01 1997.19 1851.78 2002.06 1858.4C2006.93 1865.21 2009.36 1874.46 2009.36 1886.14V1899.86H1971.4ZM1922.64 1790.36C1931.01 1790.36 1938.31 1789 1944.54 1786.27C1950.96 1783.55 1955.92 1779.65 1959.43 1774.59C1962.93 1769.34 1964.68 1763.11 1964.68 1755.9C1964.68 1748.51 1962.93 1742.18 1959.43 1736.92C1955.92 1731.67 1951.06 1727.68 1944.83 1724.95C1938.6 1722.03 1931.2 1720.57 1922.64 1720.57C1914.26 1720.57 1906.87 1722.03 1900.44 1724.95C1894.02 1727.68 1889.06 1731.67 1885.55 1736.92C1882.05 1742.18 1880.3 1748.51 1880.3 1755.9C1880.3 1763.11 1882.05 1769.34 1885.55 1774.59C1889.06 1779.65 1893.92 1783.55 1900.15 1786.27C1906.58 1789 1914.07 1790.36 1922.64 1790.36ZM2175.83 1791.82H2212.62C2211.07 1801.75 2206.88 1810.61 2200.07 1818.39C2193.45 1826.18 2184.4 1832.31 2172.91 1836.79C2161.43 1841.27 2147.41 1843.5 2130.86 1843.5C2112.37 1843.5 2096.02 1840.58 2081.81 1834.74C2067.6 1828.71 2056.5 1820.05 2048.52 1808.76C2040.54 1797.47 2036.55 1783.84 2036.55 1767.88C2036.55 1751.91 2040.44 1738.29 2048.23 1727C2056.01 1715.51 2066.82 1706.75 2080.64 1700.72C2094.66 1694.68 2111.01 1691.66 2129.7 1691.66C2148.77 1691.66 2164.64 1694.68 2177.29 1700.72C2189.94 1706.75 2199.29 1715.9 2205.32 1728.16C2211.55 1740.23 2214.18 1755.71 2213.21 1774.59H2074.8C2075.77 1781.99 2078.5 1788.71 2082.98 1794.74C2087.65 1800.77 2093.88 1805.54 2101.66 1809.05C2109.64 1812.55 2119.09 1814.3 2129.99 1814.3C2142.06 1814.3 2152.08 1812.26 2160.06 1808.17C2168.24 1803.89 2173.5 1798.44 2175.83 1791.82ZM2127.94 1720.57C2113.93 1720.57 2102.54 1723.69 2093.78 1729.92C2085.02 1735.95 2079.37 1743.45 2076.84 1752.4H2175.54C2174.57 1742.67 2169.89 1734.98 2161.52 1729.33C2153.35 1723.49 2142.15 1720.57 2127.94 1720.57Z" fill="white"/>
</svg>
