<svg width="190" height="25" viewBox="0 0 190 25" fill="none" xmlns="http://www.w3.org/2000/svg">
<g clip-path="url(#clip0_270_197)">
<mask id="mask0_270_197" style="mask-type:luminance" maskUnits="userSpaceOnUse" x="0" y="0" width="190" height="25">
<path d="M190 0H0V25H190V0Z" fill="white"/>
</mask>
<g mask="url(#mask0_270_197)">
<path d="M13.8681 0.826265L16.915 7.06064L23.8056 8.04502C25.0243 8.23252 25.4931 9.73252 24.6025 10.6231L19.6806 15.4513L20.8525 22.2481C21.04 23.4669 19.7275 24.4044 18.6493 23.8419L12.5087 20.6075L6.41496 23.8419C5.33684 24.4044 4.02434 23.4669 4.21184 22.2481L5.38371 15.4513L0.461836 10.6231C-0.428789 9.73252 0.0399611 8.23252 1.25871 8.04502L8.10246 7.06064L11.1962 0.826265C11.7118 -0.25186 13.3056 -0.298735 13.8681 0.826265Z" fill="#F3CD77"/>
<path d="M54.9306 0.826265L57.9775 7.06064L64.8681 8.04502C66.0869 8.23252 66.5556 9.73252 65.665 10.6231L60.7431 15.4513L61.915 22.2481C62.1025 23.4669 60.79 24.4044 59.7119 23.8419L53.5712 20.6075L47.4775 23.8419C46.3994 24.4044 45.0869 23.4669 45.2744 22.2481L46.4462 15.4513L41.5244 10.6231C40.6337 9.73252 41.1025 8.23252 42.3212 8.04502L49.165 7.06064L52.2587 0.826265C52.7744 -0.25186 54.3681 -0.298735 54.9306 0.826265Z" fill="#F3CD77"/>
<path d="M95.993 0.826265L99.0399 7.06064L105.93 8.04502C107.149 8.23252 107.618 9.73252 106.727 10.6231L101.805 15.4513L102.977 22.2481C103.165 23.4669 101.852 24.4044 100.774 23.8419L94.6337 20.6075L88.5399 23.8419C87.4618 24.4044 86.1493 23.4669 86.3368 22.2481L87.5087 15.4513L82.5868 10.6231C81.6962 9.73252 82.1649 8.23252 83.3837 8.04502L90.2274 7.06064L93.3212 0.826265C93.8368 -0.25186 95.4305 -0.298735 95.993 0.826265Z" fill="#F3CD77"/>
<path d="M137.063 0.826265L140.11 7.06064L147 8.04502C148.219 8.23252 148.688 9.73252 147.797 10.6231L142.875 15.4513L144.047 22.2481C144.235 23.4669 142.922 24.4044 141.844 23.8419L135.704 20.6075L129.61 23.8419C128.532 24.4044 127.219 23.4669 127.407 22.2481L128.579 15.4513L123.657 10.6231C122.766 9.73252 123.235 8.23252 124.454 8.04502L131.297 7.06064L134.391 0.826265C134.907 -0.25186 136.5 -0.298735 137.063 0.826265Z" fill="#F3CD77"/>
<path d="M178.126 0.826265L181.173 7.06064L188.064 8.04502C189.283 8.23252 189.751 9.73252 188.861 10.6231L183.939 15.4513L185.111 22.2481C185.298 23.4669 183.986 24.4044 182.908 23.8419L176.767 20.6075L170.673 23.8419C169.595 24.4044 168.283 23.4669 168.47 22.2481L169.642 15.4513L164.72 10.6231C163.829 9.73252 164.298 8.23252 165.517 8.04502L172.361 7.06064L175.454 0.826265C175.97 -0.25186 177.564 -0.298735 178.126 0.826265Z" fill="#F3CD77"/>
</g>
</g>
<defs>
<clipPath id="clip0_270_197">
<rect width="190" height="25" fill="white"/>
</clipPath>
</defs>
</svg>
